<svg id="BG" xmlns="http://www.w3.org/2000/svg" xmlns:xlink="http://www.w3.org/1999/xlink" width="1227" height="827" viewBox="0 0 1227 827">
  <defs>
    <clipPath id="clip-path">
      <rect id="Rectangle_5575" data-name="Rectangle 5575" width="1227" height="827" rx="32" fill="#d7e2ff"/>
    </clipPath>
    <clipPath id="clip-path-2">
      <rect width="616" height="804" fill="none"/>
    </clipPath>
    <linearGradient id="linear-gradient" x1="0.987" y1="0.012" x2="0.097" y2="0.207" gradientUnits="objectBoundingBox">
      <stop offset="0" stop-color="#d7e2ff" stop-opacity="0"/>
      <stop offset="1" stop-color="#f1f3ff"/>
    </linearGradient>
  </defs>
  <path id="Rectangle_5568" data-name="Rectangle 5568" d="M32,0H1195a32,32,0,0,1,32,32V827a0,0,0,0,1,0,0H0a0,0,0,0,1,0,0V32A32,32,0,0,1,32,0Z" fill="#f1f3ff"/>
  <g id="Mask_Group_5460" data-name="Mask Group 5460" transform="translate(0)" clip-path="url(#clip-path)">
    <g id="Group_852" data-name="Group 852" transform="translate(670)" opacity="0.492">
      <g id="Repeat_Grid_72" data-name="Repeat Grid 72" clip-path="url(#clip-path-2)">
        <g id="Group_851" data-name="Group 851" transform="translate(-1430.382 -1757)">
          <rect id="Rectangle_5570" data-name="Rectangle 5570" width="58" height="58" transform="translate(1487.382 1757)" fill="#d7e2ff"/>
          <rect id="Rectangle_5571" data-name="Rectangle 5571" width="58" height="57" transform="translate(1487.382 1815)" fill="#edf0ff"/>
          <rect id="Rectangle_5572" data-name="Rectangle 5572" width="57" height="57" transform="translate(1430.382 1815)" fill="#d7e2ff"/>
          <rect id="Rectangle_5573" data-name="Rectangle 5573" width="57" height="58" transform="translate(1430.382 1757)" fill="#edf0ff"/>
        </g>
        <g id="Group_851-2" data-name="Group 851" transform="translate(-1315.382 -1757)">
          <rect id="Rectangle_5570-2" data-name="Rectangle 5570" width="58" height="58" transform="translate(1487.382 1757)" fill="#d7e2ff"/>
          <rect id="Rectangle_5571-2" data-name="Rectangle 5571" width="58" height="57" transform="translate(1487.382 1815)" fill="#edf0ff"/>
          <rect id="Rectangle_5572-2" data-name="Rectangle 5572" width="57" height="57" transform="translate(1430.382 1815)" fill="#d7e2ff"/>
          <rect id="Rectangle_5573-2" data-name="Rectangle 5573" width="57" height="58" transform="translate(1430.382 1757)" fill="#edf0ff"/>
        </g>
        <g id="Group_851-3" data-name="Group 851" transform="translate(-1200.382 -1757)">
          <rect id="Rectangle_5570-3" data-name="Rectangle 5570" width="58" height="58" transform="translate(1487.382 1757)" fill="#d7e2ff"/>
          <rect id="Rectangle_5571-3" data-name="Rectangle 5571" width="58" height="57" transform="translate(1487.382 1815)" fill="#edf0ff"/>
          <rect id="Rectangle_5572-3" data-name="Rectangle 5572" width="57" height="57" transform="translate(1430.382 1815)" fill="#d7e2ff"/>
          <rect id="Rectangle_5573-3" data-name="Rectangle 5573" width="57" height="58" transform="translate(1430.382 1757)" fill="#edf0ff"/>
        </g>
        <g id="Group_851-4" data-name="Group 851" transform="translate(-1085.382 -1757)">
          <rect id="Rectangle_5570-4" data-name="Rectangle 5570" width="58" height="58" transform="translate(1487.382 1757)" fill="#d7e2ff"/>
          <rect id="Rectangle_5571-4" data-name="Rectangle 5571" width="58" height="57" transform="translate(1487.382 1815)" fill="#edf0ff"/>
          <rect id="Rectangle_5572-4" data-name="Rectangle 5572" width="57" height="57" transform="translate(1430.382 1815)" fill="#d7e2ff"/>
          <rect id="Rectangle_5573-4" data-name="Rectangle 5573" width="57" height="58" transform="translate(1430.382 1757)" fill="#edf0ff"/>
        </g>
        <g id="Group_851-5" data-name="Group 851" transform="translate(-970.382 -1757)">
          <rect id="Rectangle_5570-5" data-name="Rectangle 5570" width="58" height="58" transform="translate(1487.382 1757)" fill="#d7e2ff"/>
          <rect id="Rectangle_5571-5" data-name="Rectangle 5571" width="58" height="57" transform="translate(1487.382 1815)" fill="#edf0ff"/>
          <rect id="Rectangle_5572-5" data-name="Rectangle 5572" width="57" height="57" transform="translate(1430.382 1815)" fill="#d7e2ff"/>
          <rect id="Rectangle_5573-5" data-name="Rectangle 5573" width="57" height="58" transform="translate(1430.382 1757)" fill="#edf0ff"/>
        </g>
        <g id="Group_851-6" data-name="Group 851" transform="translate(-855.382 -1757)">
          <rect id="Rectangle_5570-6" data-name="Rectangle 5570" width="58" height="58" transform="translate(1487.382 1757)" fill="#d7e2ff"/>
          <rect id="Rectangle_5571-6" data-name="Rectangle 5571" width="58" height="57" transform="translate(1487.382 1815)" fill="#edf0ff"/>
          <rect id="Rectangle_5572-6" data-name="Rectangle 5572" width="57" height="57" transform="translate(1430.382 1815)" fill="#d7e2ff"/>
          <rect id="Rectangle_5573-6" data-name="Rectangle 5573" width="57" height="58" transform="translate(1430.382 1757)" fill="#edf0ff"/>
        </g>
        <g id="Group_851-7" data-name="Group 851" transform="translate(-1430.382 -1642)">
          <rect id="Rectangle_5570-7" data-name="Rectangle 5570" width="58" height="58" transform="translate(1487.382 1757)" fill="#d7e2ff"/>
          <rect id="Rectangle_5571-7" data-name="Rectangle 5571" width="58" height="57" transform="translate(1487.382 1815)" fill="#edf0ff"/>
          <rect id="Rectangle_5572-7" data-name="Rectangle 5572" width="57" height="57" transform="translate(1430.382 1815)" fill="#d7e2ff"/>
          <rect id="Rectangle_5573-7" data-name="Rectangle 5573" width="57" height="58" transform="translate(1430.382 1757)" fill="#edf0ff"/>
        </g>
        <g id="Group_851-8" data-name="Group 851" transform="translate(-1315.382 -1642)">
          <rect id="Rectangle_5570-8" data-name="Rectangle 5570" width="58" height="58" transform="translate(1487.382 1757)" fill="#d7e2ff"/>
          <rect id="Rectangle_5571-8" data-name="Rectangle 5571" width="58" height="57" transform="translate(1487.382 1815)" fill="#edf0ff"/>
          <rect id="Rectangle_5572-8" data-name="Rectangle 5572" width="57" height="57" transform="translate(1430.382 1815)" fill="#d7e2ff"/>
          <rect id="Rectangle_5573-8" data-name="Rectangle 5573" width="57" height="58" transform="translate(1430.382 1757)" fill="#edf0ff"/>
        </g>
        <g id="Group_851-9" data-name="Group 851" transform="translate(-1200.382 -1642)">
          <rect id="Rectangle_5570-9" data-name="Rectangle 5570" width="58" height="58" transform="translate(1487.382 1757)" fill="#d7e2ff"/>
          <rect id="Rectangle_5571-9" data-name="Rectangle 5571" width="58" height="57" transform="translate(1487.382 1815)" fill="#edf0ff"/>
          <rect id="Rectangle_5572-9" data-name="Rectangle 5572" width="57" height="57" transform="translate(1430.382 1815)" fill="#d7e2ff"/>
          <rect id="Rectangle_5573-9" data-name="Rectangle 5573" width="57" height="58" transform="translate(1430.382 1757)" fill="#edf0ff"/>
        </g>
        <g id="Group_851-10" data-name="Group 851" transform="translate(-1085.382 -1642)">
          <rect id="Rectangle_5570-10" data-name="Rectangle 5570" width="58" height="58" transform="translate(1487.382 1757)" fill="#d7e2ff"/>
          <rect id="Rectangle_5571-10" data-name="Rectangle 5571" width="58" height="57" transform="translate(1487.382 1815)" fill="#edf0ff"/>
          <rect id="Rectangle_5572-10" data-name="Rectangle 5572" width="57" height="57" transform="translate(1430.382 1815)" fill="#d7e2ff"/>
          <rect id="Rectangle_5573-10" data-name="Rectangle 5573" width="57" height="58" transform="translate(1430.382 1757)" fill="#edf0ff"/>
        </g>
        <g id="Group_851-11" data-name="Group 851" transform="translate(-970.382 -1642)">
          <rect id="Rectangle_5570-11" data-name="Rectangle 5570" width="58" height="58" transform="translate(1487.382 1757)" fill="#d7e2ff"/>
          <rect id="Rectangle_5571-11" data-name="Rectangle 5571" width="58" height="57" transform="translate(1487.382 1815)" fill="#edf0ff"/>
          <rect id="Rectangle_5572-11" data-name="Rectangle 5572" width="57" height="57" transform="translate(1430.382 1815)" fill="#d7e2ff"/>
          <rect id="Rectangle_5573-11" data-name="Rectangle 5573" width="57" height="58" transform="translate(1430.382 1757)" fill="#edf0ff"/>
        </g>
        <g id="Group_851-12" data-name="Group 851" transform="translate(-855.382 -1642)">
          <rect id="Rectangle_5570-12" data-name="Rectangle 5570" width="58" height="58" transform="translate(1487.382 1757)" fill="#d7e2ff"/>
          <rect id="Rectangle_5571-12" data-name="Rectangle 5571" width="58" height="57" transform="translate(1487.382 1815)" fill="#edf0ff"/>
          <rect id="Rectangle_5572-12" data-name="Rectangle 5572" width="57" height="57" transform="translate(1430.382 1815)" fill="#d7e2ff"/>
          <rect id="Rectangle_5573-12" data-name="Rectangle 5573" width="57" height="58" transform="translate(1430.382 1757)" fill="#edf0ff"/>
        </g>
        <g id="Group_851-13" data-name="Group 851" transform="translate(-1430.382 -1527)">
          <rect id="Rectangle_5570-13" data-name="Rectangle 5570" width="58" height="58" transform="translate(1487.382 1757)" fill="#d7e2ff"/>
          <rect id="Rectangle_5571-13" data-name="Rectangle 5571" width="58" height="57" transform="translate(1487.382 1815)" fill="#edf0ff"/>
          <rect id="Rectangle_5572-13" data-name="Rectangle 5572" width="57" height="57" transform="translate(1430.382 1815)" fill="#d7e2ff"/>
          <rect id="Rectangle_5573-13" data-name="Rectangle 5573" width="57" height="58" transform="translate(1430.382 1757)" fill="#edf0ff"/>
        </g>
        <g id="Group_851-14" data-name="Group 851" transform="translate(-1315.382 -1527)">
          <rect id="Rectangle_5570-14" data-name="Rectangle 5570" width="58" height="58" transform="translate(1487.382 1757)" fill="#d7e2ff"/>
          <rect id="Rectangle_5571-14" data-name="Rectangle 5571" width="58" height="57" transform="translate(1487.382 1815)" fill="#edf0ff"/>
          <rect id="Rectangle_5572-14" data-name="Rectangle 5572" width="57" height="57" transform="translate(1430.382 1815)" fill="#d7e2ff"/>
          <rect id="Rectangle_5573-14" data-name="Rectangle 5573" width="57" height="58" transform="translate(1430.382 1757)" fill="#edf0ff"/>
        </g>
        <g id="Group_851-15" data-name="Group 851" transform="translate(-1200.382 -1527)">
          <rect id="Rectangle_5570-15" data-name="Rectangle 5570" width="58" height="58" transform="translate(1487.382 1757)" fill="#d7e2ff"/>
          <rect id="Rectangle_5571-15" data-name="Rectangle 5571" width="58" height="57" transform="translate(1487.382 1815)" fill="#edf0ff"/>
          <rect id="Rectangle_5572-15" data-name="Rectangle 5572" width="57" height="57" transform="translate(1430.382 1815)" fill="#d7e2ff"/>
          <rect id="Rectangle_5573-15" data-name="Rectangle 5573" width="57" height="58" transform="translate(1430.382 1757)" fill="#edf0ff"/>
        </g>
        <g id="Group_851-16" data-name="Group 851" transform="translate(-1085.382 -1527)">
          <rect id="Rectangle_5570-16" data-name="Rectangle 5570" width="58" height="58" transform="translate(1487.382 1757)" fill="#d7e2ff"/>
          <rect id="Rectangle_5571-16" data-name="Rectangle 5571" width="58" height="57" transform="translate(1487.382 1815)" fill="#edf0ff"/>
          <rect id="Rectangle_5572-16" data-name="Rectangle 5572" width="57" height="57" transform="translate(1430.382 1815)" fill="#d7e2ff"/>
          <rect id="Rectangle_5573-16" data-name="Rectangle 5573" width="57" height="58" transform="translate(1430.382 1757)" fill="#edf0ff"/>
        </g>
        <g id="Group_851-17" data-name="Group 851" transform="translate(-970.382 -1527)">
          <rect id="Rectangle_5570-17" data-name="Rectangle 5570" width="58" height="58" transform="translate(1487.382 1757)" fill="#d7e2ff"/>
          <rect id="Rectangle_5571-17" data-name="Rectangle 5571" width="58" height="57" transform="translate(1487.382 1815)" fill="#edf0ff"/>
          <rect id="Rectangle_5572-17" data-name="Rectangle 5572" width="57" height="57" transform="translate(1430.382 1815)" fill="#d7e2ff"/>
          <rect id="Rectangle_5573-17" data-name="Rectangle 5573" width="57" height="58" transform="translate(1430.382 1757)" fill="#edf0ff"/>
        </g>
        <g id="Group_851-18" data-name="Group 851" transform="translate(-855.382 -1527)">
          <rect id="Rectangle_5570-18" data-name="Rectangle 5570" width="58" height="58" transform="translate(1487.382 1757)" fill="#d7e2ff"/>
          <rect id="Rectangle_5571-18" data-name="Rectangle 5571" width="58" height="57" transform="translate(1487.382 1815)" fill="#edf0ff"/>
          <rect id="Rectangle_5572-18" data-name="Rectangle 5572" width="57" height="57" transform="translate(1430.382 1815)" fill="#d7e2ff"/>
          <rect id="Rectangle_5573-18" data-name="Rectangle 5573" width="57" height="58" transform="translate(1430.382 1757)" fill="#edf0ff"/>
        </g>
        <g id="Group_851-19" data-name="Group 851" transform="translate(-1430.382 -1412)">
          <rect id="Rectangle_5570-19" data-name="Rectangle 5570" width="58" height="58" transform="translate(1487.382 1757)" fill="#d7e2ff"/>
          <rect id="Rectangle_5571-19" data-name="Rectangle 5571" width="58" height="57" transform="translate(1487.382 1815)" fill="#edf0ff"/>
          <rect id="Rectangle_5572-19" data-name="Rectangle 5572" width="57" height="57" transform="translate(1430.382 1815)" fill="#d7e2ff"/>
          <rect id="Rectangle_5573-19" data-name="Rectangle 5573" width="57" height="58" transform="translate(1430.382 1757)" fill="#edf0ff"/>
        </g>
        <g id="Group_851-20" data-name="Group 851" transform="translate(-1315.382 -1412)">
          <rect id="Rectangle_5570-20" data-name="Rectangle 5570" width="58" height="58" transform="translate(1487.382 1757)" fill="#d7e2ff"/>
          <rect id="Rectangle_5571-20" data-name="Rectangle 5571" width="58" height="57" transform="translate(1487.382 1815)" fill="#edf0ff"/>
          <rect id="Rectangle_5572-20" data-name="Rectangle 5572" width="57" height="57" transform="translate(1430.382 1815)" fill="#d7e2ff"/>
          <rect id="Rectangle_5573-20" data-name="Rectangle 5573" width="57" height="58" transform="translate(1430.382 1757)" fill="#edf0ff"/>
        </g>
        <g id="Group_851-21" data-name="Group 851" transform="translate(-1200.382 -1412)">
          <rect id="Rectangle_5570-21" data-name="Rectangle 5570" width="58" height="58" transform="translate(1487.382 1757)" fill="#d7e2ff"/>
          <rect id="Rectangle_5571-21" data-name="Rectangle 5571" width="58" height="57" transform="translate(1487.382 1815)" fill="#edf0ff"/>
          <rect id="Rectangle_5572-21" data-name="Rectangle 5572" width="57" height="57" transform="translate(1430.382 1815)" fill="#d7e2ff"/>
          <rect id="Rectangle_5573-21" data-name="Rectangle 5573" width="57" height="58" transform="translate(1430.382 1757)" fill="#edf0ff"/>
        </g>
        <g id="Group_851-22" data-name="Group 851" transform="translate(-1085.382 -1412)">
          <rect id="Rectangle_5570-22" data-name="Rectangle 5570" width="58" height="58" transform="translate(1487.382 1757)" fill="#d7e2ff"/>
          <rect id="Rectangle_5571-22" data-name="Rectangle 5571" width="58" height="57" transform="translate(1487.382 1815)" fill="#edf0ff"/>
          <rect id="Rectangle_5572-22" data-name="Rectangle 5572" width="57" height="57" transform="translate(1430.382 1815)" fill="#d7e2ff"/>
          <rect id="Rectangle_5573-22" data-name="Rectangle 5573" width="57" height="58" transform="translate(1430.382 1757)" fill="#edf0ff"/>
        </g>
        <g id="Group_851-23" data-name="Group 851" transform="translate(-970.382 -1412)">
          <rect id="Rectangle_5570-23" data-name="Rectangle 5570" width="58" height="58" transform="translate(1487.382 1757)" fill="#d7e2ff"/>
          <rect id="Rectangle_5571-23" data-name="Rectangle 5571" width="58" height="57" transform="translate(1487.382 1815)" fill="#edf0ff"/>
          <rect id="Rectangle_5572-23" data-name="Rectangle 5572" width="57" height="57" transform="translate(1430.382 1815)" fill="#d7e2ff"/>
          <rect id="Rectangle_5573-23" data-name="Rectangle 5573" width="57" height="58" transform="translate(1430.382 1757)" fill="#edf0ff"/>
        </g>
        <g id="Group_851-24" data-name="Group 851" transform="translate(-855.382 -1412)">
          <rect id="Rectangle_5570-24" data-name="Rectangle 5570" width="58" height="58" transform="translate(1487.382 1757)" fill="#d7e2ff"/>
          <rect id="Rectangle_5571-24" data-name="Rectangle 5571" width="58" height="57" transform="translate(1487.382 1815)" fill="#edf0ff"/>
          <rect id="Rectangle_5572-24" data-name="Rectangle 5572" width="57" height="57" transform="translate(1430.382 1815)" fill="#d7e2ff"/>
          <rect id="Rectangle_5573-24" data-name="Rectangle 5573" width="57" height="58" transform="translate(1430.382 1757)" fill="#edf0ff"/>
        </g>
        <g id="Group_851-25" data-name="Group 851" transform="translate(-1430.382 -1297)">
          <rect id="Rectangle_5570-25" data-name="Rectangle 5570" width="58" height="58" transform="translate(1487.382 1757)" fill="#d7e2ff"/>
          <rect id="Rectangle_5571-25" data-name="Rectangle 5571" width="58" height="57" transform="translate(1487.382 1815)" fill="#edf0ff"/>
          <rect id="Rectangle_5572-25" data-name="Rectangle 5572" width="57" height="57" transform="translate(1430.382 1815)" fill="#d7e2ff"/>
          <rect id="Rectangle_5573-25" data-name="Rectangle 5573" width="57" height="58" transform="translate(1430.382 1757)" fill="#edf0ff"/>
        </g>
        <g id="Group_851-26" data-name="Group 851" transform="translate(-1315.382 -1297)">
          <rect id="Rectangle_5570-26" data-name="Rectangle 5570" width="58" height="58" transform="translate(1487.382 1757)" fill="#d7e2ff"/>
          <rect id="Rectangle_5571-26" data-name="Rectangle 5571" width="58" height="57" transform="translate(1487.382 1815)" fill="#edf0ff"/>
          <rect id="Rectangle_5572-26" data-name="Rectangle 5572" width="57" height="57" transform="translate(1430.382 1815)" fill="#d7e2ff"/>
          <rect id="Rectangle_5573-26" data-name="Rectangle 5573" width="57" height="58" transform="translate(1430.382 1757)" fill="#edf0ff"/>
        </g>
        <g id="Group_851-27" data-name="Group 851" transform="translate(-1200.382 -1297)">
          <rect id="Rectangle_5570-27" data-name="Rectangle 5570" width="58" height="58" transform="translate(1487.382 1757)" fill="#d7e2ff"/>
          <rect id="Rectangle_5571-27" data-name="Rectangle 5571" width="58" height="57" transform="translate(1487.382 1815)" fill="#edf0ff"/>
          <rect id="Rectangle_5572-27" data-name="Rectangle 5572" width="57" height="57" transform="translate(1430.382 1815)" fill="#d7e2ff"/>
          <rect id="Rectangle_5573-27" data-name="Rectangle 5573" width="57" height="58" transform="translate(1430.382 1757)" fill="#edf0ff"/>
        </g>
        <g id="Group_851-28" data-name="Group 851" transform="translate(-1085.382 -1297)">
          <rect id="Rectangle_5570-28" data-name="Rectangle 5570" width="58" height="58" transform="translate(1487.382 1757)" fill="#d7e2ff"/>
          <rect id="Rectangle_5571-28" data-name="Rectangle 5571" width="58" height="57" transform="translate(1487.382 1815)" fill="#edf0ff"/>
          <rect id="Rectangle_5572-28" data-name="Rectangle 5572" width="57" height="57" transform="translate(1430.382 1815)" fill="#d7e2ff"/>
          <rect id="Rectangle_5573-28" data-name="Rectangle 5573" width="57" height="58" transform="translate(1430.382 1757)" fill="#edf0ff"/>
        </g>
        <g id="Group_851-29" data-name="Group 851" transform="translate(-970.382 -1297)">
          <rect id="Rectangle_5570-29" data-name="Rectangle 5570" width="58" height="58" transform="translate(1487.382 1757)" fill="#d7e2ff"/>
          <rect id="Rectangle_5571-29" data-name="Rectangle 5571" width="58" height="57" transform="translate(1487.382 1815)" fill="#edf0ff"/>
          <rect id="Rectangle_5572-29" data-name="Rectangle 5572" width="57" height="57" transform="translate(1430.382 1815)" fill="#d7e2ff"/>
          <rect id="Rectangle_5573-29" data-name="Rectangle 5573" width="57" height="58" transform="translate(1430.382 1757)" fill="#edf0ff"/>
        </g>
        <g id="Group_851-30" data-name="Group 851" transform="translate(-855.382 -1297)">
          <rect id="Rectangle_5570-30" data-name="Rectangle 5570" width="58" height="58" transform="translate(1487.382 1757)" fill="#d7e2ff"/>
          <rect id="Rectangle_5571-30" data-name="Rectangle 5571" width="58" height="57" transform="translate(1487.382 1815)" fill="#edf0ff"/>
          <rect id="Rectangle_5572-30" data-name="Rectangle 5572" width="57" height="57" transform="translate(1430.382 1815)" fill="#d7e2ff"/>
          <rect id="Rectangle_5573-30" data-name="Rectangle 5573" width="57" height="58" transform="translate(1430.382 1757)" fill="#edf0ff"/>
        </g>
        <g id="Group_851-31" data-name="Group 851" transform="translate(-1430.382 -1182)">
          <rect id="Rectangle_5570-31" data-name="Rectangle 5570" width="58" height="58" transform="translate(1487.382 1757)" fill="#d7e2ff"/>
          <rect id="Rectangle_5571-31" data-name="Rectangle 5571" width="58" height="57" transform="translate(1487.382 1815)" fill="#edf0ff"/>
          <rect id="Rectangle_5572-31" data-name="Rectangle 5572" width="57" height="57" transform="translate(1430.382 1815)" fill="#d7e2ff"/>
          <rect id="Rectangle_5573-31" data-name="Rectangle 5573" width="57" height="58" transform="translate(1430.382 1757)" fill="#edf0ff"/>
        </g>
        <g id="Group_851-32" data-name="Group 851" transform="translate(-1315.382 -1182)">
          <rect id="Rectangle_5570-32" data-name="Rectangle 5570" width="58" height="58" transform="translate(1487.382 1757)" fill="#d7e2ff"/>
          <rect id="Rectangle_5571-32" data-name="Rectangle 5571" width="58" height="57" transform="translate(1487.382 1815)" fill="#edf0ff"/>
          <rect id="Rectangle_5572-32" data-name="Rectangle 5572" width="57" height="57" transform="translate(1430.382 1815)" fill="#d7e2ff"/>
          <rect id="Rectangle_5573-32" data-name="Rectangle 5573" width="57" height="58" transform="translate(1430.382 1757)" fill="#edf0ff"/>
        </g>
        <g id="Group_851-33" data-name="Group 851" transform="translate(-1200.382 -1182)">
          <rect id="Rectangle_5570-33" data-name="Rectangle 5570" width="58" height="58" transform="translate(1487.382 1757)" fill="#d7e2ff"/>
          <rect id="Rectangle_5571-33" data-name="Rectangle 5571" width="58" height="57" transform="translate(1487.382 1815)" fill="#edf0ff"/>
          <rect id="Rectangle_5572-33" data-name="Rectangle 5572" width="57" height="57" transform="translate(1430.382 1815)" fill="#d7e2ff"/>
          <rect id="Rectangle_5573-33" data-name="Rectangle 5573" width="57" height="58" transform="translate(1430.382 1757)" fill="#edf0ff"/>
        </g>
        <g id="Group_851-34" data-name="Group 851" transform="translate(-1085.382 -1182)">
          <rect id="Rectangle_5570-34" data-name="Rectangle 5570" width="58" height="58" transform="translate(1487.382 1757)" fill="#d7e2ff"/>
          <rect id="Rectangle_5571-34" data-name="Rectangle 5571" width="58" height="57" transform="translate(1487.382 1815)" fill="#edf0ff"/>
          <rect id="Rectangle_5572-34" data-name="Rectangle 5572" width="57" height="57" transform="translate(1430.382 1815)" fill="#d7e2ff"/>
          <rect id="Rectangle_5573-34" data-name="Rectangle 5573" width="57" height="58" transform="translate(1430.382 1757)" fill="#edf0ff"/>
        </g>
        <g id="Group_851-35" data-name="Group 851" transform="translate(-970.382 -1182)">
          <rect id="Rectangle_5570-35" data-name="Rectangle 5570" width="58" height="58" transform="translate(1487.382 1757)" fill="#d7e2ff"/>
          <rect id="Rectangle_5571-35" data-name="Rectangle 5571" width="58" height="57" transform="translate(1487.382 1815)" fill="#edf0ff"/>
          <rect id="Rectangle_5572-35" data-name="Rectangle 5572" width="57" height="57" transform="translate(1430.382 1815)" fill="#d7e2ff"/>
          <rect id="Rectangle_5573-35" data-name="Rectangle 5573" width="57" height="58" transform="translate(1430.382 1757)" fill="#edf0ff"/>
        </g>
        <g id="Group_851-36" data-name="Group 851" transform="translate(-855.382 -1182)">
          <rect id="Rectangle_5570-36" data-name="Rectangle 5570" width="58" height="58" transform="translate(1487.382 1757)" fill="#d7e2ff"/>
          <rect id="Rectangle_5571-36" data-name="Rectangle 5571" width="58" height="57" transform="translate(1487.382 1815)" fill="#edf0ff"/>
          <rect id="Rectangle_5572-36" data-name="Rectangle 5572" width="57" height="57" transform="translate(1430.382 1815)" fill="#d7e2ff"/>
          <rect id="Rectangle_5573-36" data-name="Rectangle 5573" width="57" height="58" transform="translate(1430.382 1757)" fill="#edf0ff"/>
        </g>
        <g id="Group_851-37" data-name="Group 851" transform="translate(-1430.382 -1067)">
          <rect id="Rectangle_5570-37" data-name="Rectangle 5570" width="58" height="58" transform="translate(1487.382 1757)" fill="#d7e2ff"/>
          <rect id="Rectangle_5571-37" data-name="Rectangle 5571" width="58" height="57" transform="translate(1487.382 1815)" fill="#edf0ff"/>
          <rect id="Rectangle_5572-37" data-name="Rectangle 5572" width="57" height="57" transform="translate(1430.382 1815)" fill="#d7e2ff"/>
          <rect id="Rectangle_5573-37" data-name="Rectangle 5573" width="57" height="58" transform="translate(1430.382 1757)" fill="#edf0ff"/>
        </g>
        <g id="Group_851-38" data-name="Group 851" transform="translate(-1315.382 -1067)">
          <rect id="Rectangle_5570-38" data-name="Rectangle 5570" width="58" height="58" transform="translate(1487.382 1757)" fill="#d7e2ff"/>
          <rect id="Rectangle_5571-38" data-name="Rectangle 5571" width="58" height="57" transform="translate(1487.382 1815)" fill="#edf0ff"/>
          <rect id="Rectangle_5572-38" data-name="Rectangle 5572" width="57" height="57" transform="translate(1430.382 1815)" fill="#d7e2ff"/>
          <rect id="Rectangle_5573-38" data-name="Rectangle 5573" width="57" height="58" transform="translate(1430.382 1757)" fill="#edf0ff"/>
        </g>
        <g id="Group_851-39" data-name="Group 851" transform="translate(-1200.382 -1067)">
          <rect id="Rectangle_5570-39" data-name="Rectangle 5570" width="58" height="58" transform="translate(1487.382 1757)" fill="#d7e2ff"/>
          <rect id="Rectangle_5571-39" data-name="Rectangle 5571" width="58" height="57" transform="translate(1487.382 1815)" fill="#edf0ff"/>
          <rect id="Rectangle_5572-39" data-name="Rectangle 5572" width="57" height="57" transform="translate(1430.382 1815)" fill="#d7e2ff"/>
          <rect id="Rectangle_5573-39" data-name="Rectangle 5573" width="57" height="58" transform="translate(1430.382 1757)" fill="#edf0ff"/>
        </g>
        <g id="Group_851-40" data-name="Group 851" transform="translate(-1085.382 -1067)">
          <rect id="Rectangle_5570-40" data-name="Rectangle 5570" width="58" height="58" transform="translate(1487.382 1757)" fill="#d7e2ff"/>
          <rect id="Rectangle_5571-40" data-name="Rectangle 5571" width="58" height="57" transform="translate(1487.382 1815)" fill="#edf0ff"/>
          <rect id="Rectangle_5572-40" data-name="Rectangle 5572" width="57" height="57" transform="translate(1430.382 1815)" fill="#d7e2ff"/>
          <rect id="Rectangle_5573-40" data-name="Rectangle 5573" width="57" height="58" transform="translate(1430.382 1757)" fill="#edf0ff"/>
        </g>
        <g id="Group_851-41" data-name="Group 851" transform="translate(-970.382 -1067)">
          <rect id="Rectangle_5570-41" data-name="Rectangle 5570" width="58" height="58" transform="translate(1487.382 1757)" fill="#d7e2ff"/>
          <rect id="Rectangle_5571-41" data-name="Rectangle 5571" width="58" height="57" transform="translate(1487.382 1815)" fill="#edf0ff"/>
          <rect id="Rectangle_5572-41" data-name="Rectangle 5572" width="57" height="57" transform="translate(1430.382 1815)" fill="#d7e2ff"/>
          <rect id="Rectangle_5573-41" data-name="Rectangle 5573" width="57" height="58" transform="translate(1430.382 1757)" fill="#edf0ff"/>
        </g>
        <g id="Group_851-42" data-name="Group 851" transform="translate(-855.382 -1067)">
          <rect id="Rectangle_5570-42" data-name="Rectangle 5570" width="58" height="58" transform="translate(1487.382 1757)" fill="#d7e2ff"/>
          <rect id="Rectangle_5571-42" data-name="Rectangle 5571" width="58" height="57" transform="translate(1487.382 1815)" fill="#edf0ff"/>
          <rect id="Rectangle_5572-42" data-name="Rectangle 5572" width="57" height="57" transform="translate(1430.382 1815)" fill="#d7e2ff"/>
          <rect id="Rectangle_5573-42" data-name="Rectangle 5573" width="57" height="58" transform="translate(1430.382 1757)" fill="#edf0ff"/>
        </g>
      </g>
      <rect id="Rectangle_5574" data-name="Rectangle 5574" width="557" height="827" fill="url(#linear-gradient)"/>
    </g>
  </g>
</svg>
