<svg id="Component_63_2" data-name="Component 63 – 2" xmlns="http://www.w3.org/2000/svg" width="20" height="40" viewBox="0 0 20 40">
  <path id="Path_12199" data-name="Path 12199" d="M402,5842h20v15.7a4.165,4.165,0,0,1-.5,2.056,3.891,3.891,0,0,1-1.4,1.448l-7.1,4.2,1.4,4.6H422l-6.2,4.4,2.4,7.6-6.2-4.7-6.2,4.7,2.4-7.6L402,5870h7.6l1.4-4.6-7.1-4.2a3.892,3.892,0,0,1-1.4-1.448,4.166,4.166,0,0,1-.5-2.056Zm4,4v11.7l4,2.4V5846Zm12,0h-4v14.1l4-2.4Z" transform="translate(-402 -5842)" fill="#94a3b8"/>
</svg>
