<svg id="Component_65_1" data-name="Component 65 – 1" xmlns="http://www.w3.org/2000/svg" width="20" height="40" viewBox="0 0 20 40">
  <path id="Path_12195" data-name="Path 12195" d="M160,5882h20v15.7a4.143,4.143,0,0,1-.5,2.049,3.92,3.92,0,0,1-1.4,1.451l-7.1,4.2,1.4,4.6H180l-6.2,4.4,2.4,7.6-6.2-4.7-6.2,4.7,2.4-7.6L160,5910h7.6l1.4-4.6-7.1-4.2a3.92,3.92,0,0,1-1.4-1.451,4.143,4.143,0,0,1-.5-2.049Zm4,4v11.7l4,2.4V5886Zm12,0h-4v14.1l4-2.4Z" transform="translate(-160 -5882.001)" fill="#cd7f32"/>
</svg>
