<svg id="ecoms-19" xmlns="http://www.w3.org/2000/svg" width="93.345" height="40.097" viewBox="0 0 93.345 40.097">
  <path id="Path_12108" data-name="Path 12108" d="M25.68,25.65c-.14.005-.232.016-.327.016-4.238,0-8.477.021-12.713-.016a12.327,12.327,0,0,1-7.933-2.912,12.49,12.49,0,0,1-4.521-7.8A12.363,12.363,0,0,1,2.249,5.6,12.294,12.294,0,0,1,10.984.148a12.467,12.467,0,0,1,11.5,4.217,12.142,12.142,0,0,1,3.117,7.1,13.485,13.485,0,0,1,.071,1.385q.008,6.18,0,12.356ZM10.441,14.085h.43q3.4,0,6.8-.008a1.664,1.664,0,0,0,1.849-1.511,3.518,3.518,0,0,0-.04-.91,5.85,5.85,0,0,0-3-4.5A6.811,6.811,0,0,0,11.7,6.478,6.071,6.071,0,0,0,7.514,9.345a6.521,6.521,0,0,0-.96,3.793,6,6,0,0,0,3.223,5.283,7.738,7.738,0,0,0,4.27.876,6.943,6.943,0,0,0,4.03-1.456,1.351,1.351,0,0,0,.491-1.5,1.318,1.318,0,0,0-1.063-1,1.765,1.765,0,0,0-1.435.3,4.378,4.378,0,0,1-3.65.6,2.688,2.688,0,0,1-1.981-2.16Z" transform="translate(0.004 -0.005)" fill="#ec3237"/>
  <path id="Path_12109" data-name="Path 12109" d="M231.508,75.495a4.821,4.821,0,0,1,3.956-2.152,4.094,4.094,0,0,1,3.861,2.128c.359-.327.686-.67,1.058-.952a5.462,5.462,0,0,1,5.515-.783,3.82,3.82,0,0,1,2.387,3.141,9.034,9.034,0,0,1,.135,1.6c.013,2.329.008,4.658.005,6.984a1.918,1.918,0,0,1-3.743.6,2.759,2.759,0,0,1-.108-.807c-.008-1.928.008-3.856-.013-5.784a4.16,4.16,0,0,0-.2-1.234,1.987,1.987,0,0,0-2.186-1.39c-1.625.077-2.2,1.263-2.215,2.585-.026,2.012,0,4.025-.01,6.037a1.925,1.925,0,0,1-2.925,1.63,1.861,1.861,0,0,1-.926-1.688c0-1.96.013-3.919-.011-5.879a4.453,4.453,0,0,0-.222-1.327,1.987,1.987,0,0,0-2.176-1.358,2.27,2.27,0,0,0-2.207,2.527c-.026,2.012,0,4.025-.011,6.037a1.925,1.925,0,0,1-3.848.121q-.016-5.119,0-10.241a1.9,1.9,0,0,1,1.661-1.823,1.929,1.929,0,0,1,2.118,1.408c.045.179.066.364.113.625Z" transform="translate(-167.58 -53.985)" fill="#333e53"/>
  <path id="Path_12110" data-name="Path 12110" d="M179.1,80.488a7.025,7.025,0,0,1-5.765,6.955,7.568,7.568,0,0,1-6.348-1.419,6.684,6.684,0,0,1-2.6-4.795,7.05,7.05,0,0,1,6.09-7.693,7.425,7.425,0,0,1,6.878,2.308,6.768,6.768,0,0,1,1.743,4.642Zm-3.8.092a3.646,3.646,0,0,0-.388-1.8,3.56,3.56,0,0,0-5.75-.989,3.789,3.789,0,0,0-.976,3.265A3.585,3.585,0,0,0,173.4,83.92a3.47,3.47,0,0,0,1.9-3.342Z" transform="translate(-121.004 -54.068)" fill="#333e53"/>
  <path id="Path_12111" data-name="Path 12111" d="M317.71,87.74a10.249,10.249,0,0,1-5.217-1.669,1.451,1.451,0,0,1-.675-1.5,1.4,1.4,0,0,1,1.039-1.226,1.55,1.55,0,0,1,1.3.174,7.121,7.121,0,0,0,3.109,1.139,5.237,5.237,0,0,0,1.374-.09.876.876,0,0,0,.767-.807.845.845,0,0,0-.559-.928c-.657-.274-1.34-.491-2.01-.731-.691-.251-1.4-.456-2.068-.762a3.534,3.534,0,0,1-2.263-3.447,3.951,3.951,0,0,1,2.331-3.748,6.455,6.455,0,0,1,3.853-.493,9.409,9.409,0,0,1,3.078.989,1.512,1.512,0,0,1,.839,1.654A1.4,1.4,0,0,1,321.55,77.5a1.609,1.609,0,0,1-1.221-.129,7.254,7.254,0,0,0-2.411-.8,4.078,4.078,0,0,0-1.187.061.863.863,0,0,0-.739.768.806.806,0,0,0,.519.86c.589.274,1.2.5,1.8.754.921.382,1.87.707,2.751,1.163a3.113,3.113,0,0,1,1.759,2.337,4.017,4.017,0,0,1-2.914,4.819,20.317,20.317,0,0,1-2.192.406Z" transform="translate(-229.563 -54.164)" fill="#333e53"/>
  <path id="Path_12112" data-name="Path 12112" d="M119.876,84.209a3.979,3.979,0,0,0,2.5-.91,1.638,1.638,0,1,1,2.1,2.511,6.628,6.628,0,0,1-4.212,1.693,7.024,7.024,0,0,1-5.918-2.321,7.159,7.159,0,0,1,3.592-11.626,7.42,7.42,0,0,1,5.805.839,3.513,3.513,0,0,1,.96.844,1.679,1.679,0,0,1-.216,2.163,1.788,1.788,0,0,1-2.266.172,4.421,4.421,0,0,0-1.68-.839,3.229,3.229,0,0,0-3.84,2.055,4.1,4.1,0,0,0,.546,4.2,3.16,3.16,0,0,0,2.622,1.213Z" transform="translate(-82.898 -53.979)" fill="#333e53"/>
  <path id="Path_12113" data-name="Path 12113" d="M97.84,114.363a1.925,1.925,0,0,1,3.851.018,1.926,1.926,0,0,1-3.851-.016Z" transform="translate(-72.034 -82.8)" fill="#333e53"/>
  <path id="Path_12114" data-name="Path 12114" d="M39.36,37.554a2.8,2.8,0,0,1,2.669-2.519,2.694,2.694,0,0,1,2.78,2.519Z" transform="translate(-28.978 -25.795)" fill="#ec3237"/>
  <g id="Group_717" data-name="Group 717" transform="translate(25.999 37.464)">
    <path id="Path_12115" data-name="Path 12115" d="M224.905,142.4c-.3.6-.6,1.19-.918,1.82-.179-.353-.327-.665-.491-.968a3.338,3.338,0,0,0-.517-.9c-.032.272-.05.48-.082.686-.069.475-.142.95-.214,1.424-.01.071-.032.158.071.179s.164-.045.171-.15a1.013,1.013,0,0,1,.016-.179,7,7,0,0,1,.224-1.221c.274.541.527,1.047.815,1.617.288-.565.546-1.074.818-1.612.161.285.079.575.177.826s-.087.575.33.778c-.113-.81-.219-1.548-.324-2.287a.758.758,0,0,0-.076-.013Z" transform="translate(-189.943 -142.271)" fill="#333e53"/>
    <path id="Path_12116" data-name="Path 12116" d="M321.479,142.09a1.2,1.2,0,0,0-1.24,1.208,1.218,1.218,0,0,0,1.216,1.237,1.2,1.2,0,0,0,1.232-1.216,1.183,1.183,0,0,0-1.211-1.229Zm-.053,2.2a.938.938,0,0,1-.934-1,.975.975,0,1,1,1.949.034A.94.94,0,0,1,321.427,144.287Z" transform="translate(-261.775 -142.079)" fill="#333e53"/>
    <path id="Path_12117" data-name="Path 12117" d="M163.211,142.285a4.137,4.137,0,0,0-.939-.079c-.174.005-.232.082-.232.251.005.673,0,1.348,0,2.084.359,0,.67.013.981,0a1.011,1.011,0,0,0,.992-.968,1.111,1.111,0,0,0-.8-1.284Zm.512,1.459a.7.7,0,0,1-.554.533,2.662,2.662,0,0,1-.86.05v-1.833a1.033,1.033,0,0,1,.554-.029c.82.076,1,.657.86,1.276Z" transform="translate(-145.3 -142.164)" fill="#333e53"/>
    <path id="Path_12118" data-name="Path 12118" d="M265.905,142.083a1.184,1.184,0,0,0-1.205,1.234,1.2,1.2,0,0,0,1.234,1.211,1.239,1.239,0,0,0,1.216-1.245,1.2,1.2,0,0,0-1.245-1.2Zm0,2.2a.966.966,0,0,1-.984-.957,1.024,1.024,0,0,1,.976-1.031.987.987,0,0,1,.992,1,.954.954,0,0,1-.984.992Z" transform="translate(-220.884 -142.072)" fill="#333e53"/>
    <path id="Path_12119" data-name="Path 12119" d="M112.06,142.083a1.182,1.182,0,0,0-1.224,1.213,1.2,1.2,0,0,0,1.211,1.232,1.251,1.251,0,0,0,1.242-1.224,1.226,1.226,0,0,0-1.232-1.224Zm-.042,2.2a.974.974,0,0,1-.957-.981,1.035,1.035,0,0,1,1-1,1,1,0,0,1,.971,1.026A.957.957,0,0,1,112.018,144.28Z" transform="translate(-107.6 -142.072)" fill="#333e53"/>
    <path id="Path_12120" data-name="Path 12120" d="M337.589,142.957c-.019.287.01.578-.024.955l-1.585-1.8v2.028c0,.076,0,.15,0,.227s.04.111.111.108a.12.12,0,0,0,.129-.1c.01-.105,0-.211.008-.316a11.737,11.737,0,0,1,.032-1.269c.52.588,1,1.132,1.511,1.706a6.377,6.377,0,0,0-.1-2.371c-.166.277-.069.562-.087.831Z" transform="translate(-273.364 -142.094)" fill="#333e53"/>
    <path id="Path_12121" data-name="Path 12121" d="M140.721,142.809c-.021-.3-.216-.48-.559-.549a5,5,0,0,0-.628-.045c-.229-.016-.277.09-.274.3.011.6,0,1.2.005,1.8a.43.43,0,0,0,.024.174c.013.029.069.047.111.053a.078.078,0,0,0,.061-.05c.013-.1.016-.206.024-.311a3.189,3.189,0,0,1,.032-.694c.142,0,.179.087.235.156.2.261.411.517.609.783a.233.233,0,0,0,.346.079c-.253-.335-.5-.657-.778-1.021a2.676,2.676,0,0,0,.285-.032.623.623,0,0,0,.514-.644Zm-.686.448c-.164,0-.324,0-.53,0-.011-.1-.021-.156-.021-.214V142.5a1.521,1.521,0,0,1,.622-.032.361.361,0,0,1,.361.33.382.382,0,0,1-.3.43.568.568,0,0,1-.129.029Z" transform="translate(-128.528 -142.171)" fill="#333e53"/>
    <path id="Path_12122" data-name="Path 12122" d="M128.052,142.412A.208.208,0,0,0,128,142.3a.135.135,0,0,0-.076-.04.083.083,0,0,0-.1.063,2.467,2.467,0,0,0-.016.314c0,.419.008.841-.008,1.261a.532.532,0,0,1-1.063.01c-.016-.24,0-.48,0-.72h-.008v-.81c0-.061-.024-.121-.1-.119a.137.137,0,0,0-.129.105.334.334,0,0,0-.013.087,14.191,14.191,0,0,0,.037,1.572.635.635,0,0,0,.148.369.78.78,0,0,0,.775.253.68.68,0,0,0,.562-.57A10.927,10.927,0,0,0,128.052,142.412Z" transform="translate(-119.117 -142.201)" fill="#333e53"/>
    <path id="Path_12123" data-name="Path 12123" d="M186.35,144.432h.253c.066-.116.348-.744.348-.744h.986l.414.744h.243c-.356-.76-.731-1.548-1.121-2.382C187.075,142.894,186.7,143.685,186.35,144.432Zm1.506-1.013-.762-.005c.129-.269.245-.517.383-.8l.382.81Z" transform="translate(-163.198 -142.05)" fill="#333e53"/>
    <path id="Path_12124" data-name="Path 12124" d="M292.164,142.259a.127.127,0,0,0-.124.111c-.008.105-.008.208-.011.314,0,.406.008.812-.008,1.216a.472.472,0,0,1-.5.514.506.506,0,0,1-.554-.475,2.959,2.959,0,0,1-.011-.406c0-.374,0-.752,0-1.126,0-.077-.026-.158-.127-.145-.068.008-.087.074-.087.134v.812h.005c0,.24-.011.48,0,.72a.707.707,0,0,0,.7.725.717.717,0,0,0,.791-.588,9.921,9.921,0,0,0,.037-1.706.1.1,0,0,0-.114-.1Z" transform="translate(-240.056 -142.201)" fill="#333e53"/>
    <path id="Path_12125" data-name="Path 12125" d="M177.111,142.466c.058,0,.124,0,.132-.084a.121.121,0,0,0-.119-.153q-.518-.008-1.037,0c-.116,0-.148.082-.148.182v2.152h.744c.15,0,.3,0,.451-.005.063,0,.1-.042.1-.116,0-.034,0-.121-.066-.121h-1v-.884h.91c.105,0,.177-.037.163-.156s-.105-.087-.174-.087c-.3,0-.591,0-.9,0l.005-.725h.947Z" transform="translate(-155.534 -142.179)" fill="#333e53"/>
    <path id="Path_12126" data-name="Path 12126" d="M200.828,143.14c-.1-.087-.216-.161-.311-.256a.307.307,0,0,1-.068-.406.345.345,0,0,1,.443-.1c.092.045.166.127.256.177.024.013.082-.016.116-.04a.086.086,0,0,0,.018-.119.644.644,0,0,0-.863-.227.527.527,0,0,0-.158.778,1.269,1.269,0,0,0,.287.282,4.43,4.43,0,0,1,.464.425.343.343,0,0,1-.011.52.416.416,0,0,1-.535.037,2.11,2.11,0,0,1-.264-.306c-.095.087-.219.116-.129.235a1.282,1.282,0,0,0,.243.264.664.664,0,0,0,.9-.084.582.582,0,0,0-.018-.847,3.327,3.327,0,0,0-.364-.332Z" transform="translate(-173.28 -142.082)" fill="#333e53"/>
    <path id="Path_12127" data-name="Path 12127" d="M254.227,143.1a2.251,2.251,0,0,1-.24-.2c-.108-.129-.2-.28-.055-.44a.353.353,0,0,1,.454-.053,1.725,1.725,0,0,1,.214.161c.042.029.084,0,.119-.029a.082.082,0,0,0,.026-.116.619.619,0,0,0-.556-.319.53.53,0,0,0-.512.3.591.591,0,0,0,.222.752,3.853,3.853,0,0,1,.57.506.352.352,0,0,1,0,.522.426.426,0,0,1-.535.05,1.586,1.586,0,0,1-.187-.19c-.05-.05-.1-.113-.182-.045s-.053.121-.008.187a.812.812,0,0,0,.414.33.678.678,0,0,0,.881-.625.6.6,0,0,0-.185-.4c-.137-.137-.287-.261-.435-.388Z" transform="translate(-212.645 -142.086)" fill="#333e53"/>
    <path id="Path_12128" data-name="Path 12128" d="M349.884,143.3c-.121-.111-.261-.2-.388-.309-.253-.211-.327-.411-.211-.57s.3-.137.591.053c.071.047.132.074.2.013.1-.092.013-.158-.047-.222a.833.833,0,0,0-.14-.113.6.6,0,0,0-.778.092.552.552,0,0,0,.058.77c.113.119.256.211.377.319a1.893,1.893,0,0,1,.316.317.373.373,0,0,1-.319.6.488.488,0,0,1-.443-.258c-.1-.15-.166-.04-.245.024a1.218,1.218,0,0,0,.09.153.685.685,0,0,0,1.055.142.667.667,0,0,0-.111-1.021Z" transform="translate(-282.84 -142.051)" fill="#333e53"/>
    <path id="Path_12129" data-name="Path 12129" d="M100.065,142.267c-.087.045-.119.132-.166.208-.148.24-.3.483-.456.744-.127-.2-.227-.388-.353-.551s-.145-.443-.52-.414c.19.314.327.58.5.82a1.236,1.236,0,0,1,.243.881c-.013.164,0,.33,0,.5a.117.117,0,0,0,.14.129.11.11,0,0,0,.111-.113,3.458,3.458,0,0,0,0-.5,1.277,1.277,0,0,1,.258-.923,6.82,6.82,0,0,0,.39-.654.082.082,0,0,0-.026-.116.107.107,0,0,0-.124-.005Z" transform="translate(-98.57 -142.199)" fill="#333e53"/>
    <path id="Path_12130" data-name="Path 12130" d="M239.853,142.173a1.245,1.245,0,0,0-.145.224c-.132.216-.264.43-.4.646-.327-.264-.359-.781-.836-.984a.965.965,0,0,0,0,.148,3.249,3.249,0,0,0,.214.343,2.052,2.052,0,0,1,.483,1.617.758.758,0,0,0,0,.134c.005.058.005.121.087.129s.153-.024.158-.113a3.33,3.33,0,0,0,0-.538,1.257,1.257,0,0,1,.251-.881c.137-.2.253-.406.377-.609.032-.05.058-.111,0-.158-.077-.066-.148-.011-.2.04Z" transform="translate(-201.573 -142.057)" fill="#333e53"/>
    <path id="Path_12131" data-name="Path 12131" d="M303.628,142.219c-.359-.005-.72-.005-1.079,0-.063,0-.092.066-.09.132s.047.1.113.108c.129.018.266-.034.411.058v1.648a2.511,2.511,0,0,0,.013.314.08.08,0,0,0,.1.069.205.205,0,0,0,.113-.05c.061-.076.032-.171.032-.258V142.48c.153-.008.269-.011.388-.021a.1.1,0,0,0,.1-.116.118.118,0,0,0-.1-.127Z" transform="translate(-248.685 -142.171)" fill="#333e53"/>
    <path id="Path_12132" data-name="Path 12132" d="M313.212,142.305c-.124-.016-.14.082-.143.177v.994h0v.994c0,.084.029.15.124.148s.124-.066.124-.15v-1.986c0-.082-.018-.161-.108-.171Z" transform="translate(-256.497 -142.237)" fill="#333e53"/>
    <path id="Path_12133" data-name="Path 12133" d="M154.672,142.309c-.121-.008-.142.082-.142.179v.947h0v1.039c0,.087.04.145.132.145s.116-.074.116-.153V142.48C154.778,142.4,154.77,142.317,154.672,142.309Z" transform="translate(-139.771 -142.24)" fill="#333e53"/>
    <path id="Path_12134" data-name="Path 12134" d="M281.335,144.4c-.208,0-.419,0-.694,0v-1.973c0-.061-.016-.129-.082-.14-.1-.013-.129.063-.129.142v2.179h.936c.074,0,.166,0,.169-.095.005-.137-.111-.111-.2-.111Z" transform="translate(-232.465 -142.223)" fill="#333e53"/>
    <path id="Path_12135" data-name="Path 12135" d="M211.8,149.647c-.055-.024-.134-.026-.153.037-.058.187-.224.343-.174.562,0,.008.026.024.034.018.214-.066.216-.29.322-.435.016-.024.024-.053.018-.045.026-.09-.013-.121-.05-.137Z" transform="translate(-181.689 -147.632)" fill="#333e53"/>
  </g>
</svg>
