<svg xmlns="http://www.w3.org/2000/svg" width="40" height="40" viewBox="0 0 40 40">
  <g id="Group_784" data-name="Group 784" transform="translate(-400 -3169)">
    <rect id="Rectangle_5485" data-name="Rectangle 5485" width="40" height="40" rx="20" transform="translate(400 3169)" fill="#862208"/>
    <path id="Path_12218" data-name="Path 12218" d="M128,6470v-1.57a1.99,1.99,0,0,1,1.1-1.75,5.488,5.488,0,0,1,2.9-.68c.217,0,.425,0,.625.01a5.259,5.259,0,0,1,.575.06,4.3,4.3,0,0,0-.525,1.11,4.053,4.053,0,0,0-.175,1.2V6470Zm6,0v-1.62a2.6,2.6,0,0,1,.438-1.47,3.941,3.941,0,0,1,1.237-1.16,6.275,6.275,0,0,1,1.912-.75,10.807,10.807,0,0,1,2.413-.25,10.935,10.935,0,0,1,2.438.25,6.275,6.275,0,0,1,1.912.75,3.809,3.809,0,0,1,1.225,1.16,2.66,2.66,0,0,1,.425,1.47V6470Zm13.5,0v-1.62a4.444,4.444,0,0,0-.163-1.23,4.069,4.069,0,0,0-.487-1.08,5.248,5.248,0,0,1,.563-.06c.191-.01.387-.01.587-.01a5.592,5.592,0,0,1,2.9.66,2,2,0,0,1,1.1,1.77V6470Zm-11.375-2H143.9a2.362,2.362,0,0,0-1.388-.88,8.71,8.71,0,0,0-5.024,0C136.729,6467.38,136.275,6467.67,136.125,6468ZM132,6465a2.011,2.011,0,0,1-2-2,1.892,1.892,0,0,1,.588-1.42A2,2,0,1,1,132,6465Zm16,0a2.009,2.009,0,0,1-2-2,1.9,1.9,0,0,1,.587-1.42A2,2,0,1,1,148,6465Zm-8-1a3.016,3.016,0,0,1-2.125-5.14,3.013,3.013,0,0,1,4.262,4.26A2.86,2.86,0,0,1,140,6464Zm0-2a.975.975,0,0,0,.712-.29,1.019,1.019,0,0,0,0-1.42,1.019,1.019,0,0,0-1.424,0,1.019,1.019,0,0,0,0,1.42A.975.975,0,0,0,140,6462Z" transform="translate(280 -3275)" fill="#ffede9"/>
  </g>
</svg>
