<svg id="Group_783" data-name="Group 783" xmlns="http://www.w3.org/2000/svg" width="40" height="40" viewBox="0 0 40 40">
  <rect id="Rectangle_5486" data-name="Rectangle 5486" width="40" height="40" rx="20" fill="#1f304f"/>
  <path id="Path_12226" data-name="Path 12226" d="M726,6461.9v-1.7a9.312,9.312,0,0,1,1.688-.53,9.628,9.628,0,0,1,1.812-.17,7.655,7.655,0,0,1,1.275.1c.417.07.825.15,1.225.25v1.6a6.772,6.772,0,0,0-2.5-.45,6.862,6.862,0,0,0-1.825.24A8.329,8.329,0,0,0,726,6461.9Zm0,5.5v-1.7a8.535,8.535,0,0,1,1.688-.52,8.837,8.837,0,0,1,1.812-.18,7.655,7.655,0,0,1,1.275.1c.417.07.825.15,1.225.25v1.6a6.772,6.772,0,0,0-2.5-.45,7.306,7.306,0,0,0-1.825.23A6.906,6.906,0,0,0,726,6467.4Zm0-2.75v-1.7a8.535,8.535,0,0,1,1.688-.52,8.837,8.837,0,0,1,1.812-.18,7.655,7.655,0,0,1,1.275.1c.417.07.825.15,1.225.25v1.6a6.772,6.772,0,0,0-2.5-.45,6.862,6.862,0,0,0-1.825.24A8.329,8.329,0,0,0,726,6464.65Zm-7.5,3.35a10.205,10.205,0,0,1,2.287.26,11.347,11.347,0,0,1,2.213.79v-9.85a8.549,8.549,0,0,0-2.175-.9,9.192,9.192,0,0,0-2.325-.3,9.765,9.765,0,0,0-1.787.17,9.153,9.153,0,0,0-1.713.53v9.9a11.326,11.326,0,0,1,1.737-.45A10.264,10.264,0,0,1,718.5,6468Zm6.5,1.05a11.362,11.362,0,0,1,2.212-.79,10.307,10.307,0,0,1,4.051-.11,11.326,11.326,0,0,1,1.737.45v-9.9a9.167,9.167,0,0,0-1.712-.53,9.785,9.785,0,0,0-1.788-.17,9.192,9.192,0,0,0-2.325.3,8.549,8.549,0,0,0-2.175.9Zm-1,2.95a9.986,9.986,0,0,0-2.6-1.48,8.185,8.185,0,0,0-2.9-.52,7.959,7.959,0,0,0-2.062.27,9.649,9.649,0,0,0-1.938.78,1.02,1.02,0,0,1-1.5-.9V6458.1a1.044,1.044,0,0,1,.138-.52.837.837,0,0,1,.412-.38,10.439,10.439,0,0,1,2.4-.9,10.9,10.9,0,0,1,2.55-.3,10.882,10.882,0,0,1,5.5,1.5,10.882,10.882,0,0,1,5.5-1.5,10.9,10.9,0,0,1,2.55.3,10.439,10.439,0,0,1,2.4.9.837.837,0,0,1,.412.38,1.044,1.044,0,0,1,.138.52v12.05a1.02,1.02,0,0,1-1.5.9,9.649,9.649,0,0,0-1.938-.78,7.954,7.954,0,0,0-2.062-.27,8.185,8.185,0,0,0-2.9.52A9.986,9.986,0,0,0,724,6472Z" transform="translate(-704 -6444)" fill="#d7e2ff"/>
</svg>
