<svg xmlns="http://www.w3.org/2000/svg" width="30" height="30" viewBox="0 0 30 30">
  <g id="Group_1" data-name="Group 1" transform="translate(-1001 -228)">
    <circle id="Ellipse_3" data-name="Ellipse 3" cx="15" cy="15" r="15" transform="translate(1001 228)" fill="#f26e33"/>
    <path id="Subtraction_1" data-name="Subtraction 1" d="M1,11.273a47.685,47.685,0,0,1-6.251-.337A2.007,2.007,0,0,1-6.665,9.512,21.168,21.168,0,0,1-7,5.637,21.176,21.176,0,0,1-6.665,1.76,2.01,2.01,0,0,1-5.252.337,47.684,47.684,0,0,1,1,0,47.684,47.684,0,0,1,7.251.337,2.009,2.009,0,0,1,8.665,1.76,21.176,21.176,0,0,1,9,5.637a21.182,21.182,0,0,1-.335,3.876,2.007,2.007,0,0,1-1.414,1.423A47.684,47.684,0,0,1,1,11.273ZM-.636,3.257V8.015L3.545,5.637Z" transform="translate(1015 237.003)" fill="#fff"/>
  </g>
</svg>
