<svg xmlns="http://www.w3.org/2000/svg" xmlns:xlink="http://www.w3.org/1999/xlink" width="144.084" height="58.865" viewBox="0 0 144.084 58.865">
  <defs>
    <clipPath id="clip-path">
      <rect id="Rectangle_5430" data-name="Rectangle 5430" width="36.32" height="58.865" fill="#333e53"/>
    </clipPath>
  </defs>
  <g id="Group_703" data-name="Group 703" transform="translate(-2552.682 5446)">
    <path id="Path_12050" data-name="Path 12050" d="M-30.442-9.987h-6.033v.513c1.252,0,1.539.882,1.539,2.032v3.447h-1.539v.985h1.539V.376c0,1.129-.287,1.991-1.539,1.991V2.88h5.951c4.043,0,7.305-2.852,7.305-6.4C-23.219-7.093-26.44-9.987-30.442-9.987Zm-.082,12.354c-1.293,0-1.621-.9-1.621-2.011V-3.01h1.58v-.985h-1.58V-7.463c0-1.17.41-2.011,1.621-2.011,2.2,0,4,2.647,4,5.951C-26.523-.239-28.328,2.367-30.524,2.367ZM-14.5,1.2v-3.94c0-2.114-1.97-3-3.919-3-1.416,0-3.735.554-3.735,2.2a1.279,1.279,0,0,0,1.272,1.272,1.279,1.279,0,0,0,1.272-1.272,1.2,1.2,0,0,0-.062-.39,1.076,1.076,0,0,1,1.047-1.519c.759,0,1.6.6,1.6,2.073v.369c-.739,1.539-5.684.78-5.684,3.837,0,1.477,1.272,2.073,2.647,2.073a4.615,4.615,0,0,0,3.017-1.026V2.88h3.468V2.367C-14.354,2.367-14.477,1.874-14.5,1.2Zm-2.565-.123a2.011,2.011,0,0,1-1.806.964c-.759,0-1.457-.369-1.457-1.252,0-2.155,2.4-2.073,3.263-3.119Zm-.41-7.839h1.58L-17.74-9.022H-18.6l-1.765,2.257h1.539l.657-1.313Zm2.216-1.026,1.621-2.4H-15.38l-.78,2.4ZM-3.97,1.156V-5.78H-7.438v.513c.8,0,.923.492.944,1.231V-.793C-6.494.93-7.561,2-8.464,2c-.7,0-1.313-.636-1.313-2.093V-5.78h-3.468v.513c.78,0,.923.492.944,1.19v4A2.974,2.974,0,0,0-9.2,2.9,3.011,3.011,0,0,0-6.474,1.259v1.56h3.468V2.305c-.78,0-.923-.472-.944-1.17Zm11.1.575a1.552,1.552,0,0,1-.964.349c-.739,0-1.375-.677-1.375-2.155V-5.062h2.3V-5.78h-2.3V-8.366H4.238c0,.985-1.7,2.586-2.914,2.586v.513c.78,0,.923.492.944,1.19V-.034A2.957,2.957,0,0,0,5.346,2.941,3.133,3.133,0,0,0,7.48,2.12Zm8.927-7.47a2.637,2.637,0,0,0-1.088-.205,3.513,3.513,0,0,0-3.058,1.949V-5.78H8.445v.513c.78,0,.923.472.944,1.17V1.2c-.021.7-.164,1.17-.944,1.17V2.88h4.412V2.367c-.8,0-.923-.492-.944-1.231V-2.127c0-1.6.9-2.627,1.744-2.627.739,0,.923.78,1.5,1.026A1.114,1.114,0,0,0,16.612-4.3,1.126,1.126,0,0,0,16.058-5.739ZM27.94-7.545a.878.878,0,0,0-1.149.39.9.9,0,0,0,.39,1.17c.144.062-.1.39-.328.6v-.39H23.384v.513c.8,0,.923.492.944,1.231V-.793C24.328.93,23.261,2,22.358,2c-.7,0-1.313-.636-1.313-2.093V-5.78H17.577v.513c.78,0,.923.492.944,1.19v4a2.974,2.974,0,0,0,3.1,2.976,3.011,3.011,0,0,0,2.729-1.642v1.56h3.468V2.305c-.78,0-.923-.472-.944-1.17l-.021.021v-6.2a2.313,2.313,0,0,0,1.539-1.313A.934.934,0,0,0,27.94-7.545Zm8,2.647a2.427,2.427,0,0,0,1.047-1.129.915.915,0,0,0-.451-1.19.878.878,0,0,0-1.149.39.9.9,0,0,0,.39,1.17c.123.062-.041.308-.226.492a4.509,4.509,0,0,0-2.36-.636A4.424,4.424,0,0,0,28.7-1.45,4.424,4.424,0,0,0,33.193,2.9a4.424,4.424,0,0,0,4.494-4.35A4.246,4.246,0,0,0,35.943-4.9Zm-2.75,7.449c-.944,0-1.7-1.785-1.7-4s.759-4,1.7-4,1.7,1.785,1.7,4S34.137,2.551,33.193,2.551Zm.513-9.316-.78-2.4H31.161l1.621,2.4ZM47.64,1.177V-2.887a3,3,0,0,0-3.16-2.976A3.092,3.092,0,0,0,41.668-4.2V-5.78H38.2v.513c.78,0,.923.472.944,1.17V1.2c-.021.7-.164,1.17-.944,1.17V2.88h4.412V2.367c-.8,0-.923-.492-.944-1.231V-2.127c0-1.724,1.088-2.791,2.052-2.791.739,0,1.4.636,1.4,2.093v4c-.021.7-.164,1.19-.944,1.19V2.88h4.412V2.367C47.8,2.367,47.64,1.874,47.64,1.177ZM53.734.848c2.3-.062,4.145-1.519,4.145-3.324a3.467,3.467,0,0,0-2.77-3.1c.267-.39.8-.78,1.19-.41a.847.847,0,0,0,.226.144,1.017,1.017,0,0,0,1.334-.534,1.017,1.017,0,0,0-.534-1.334L57.2-7.771a.764.764,0,0,0-.369-.041H56.71a.387.387,0,0,0-.164.041A3.528,3.528,0,0,0,54.658-5.7a5.328,5.328,0,0,0-1.149-.123c-2.36,0-4.289,1.5-4.289,3.324A3.518,3.518,0,0,0,52.154.663c-1.108.205-2.2.718-2.2,1.888a1.388,1.388,0,0,0,.862,1.19c-.328.185-1.149.718-1.149,1.457,0,1.457,1.888,2.216,3.837,2.216,2.052,0,4.145-.841,4.145-2.606,0-2.729-5.4-1.949-5.4-3.263,0-.226.246-.739,1.436-.739ZM55.581,5.63c0,.944-1.129,1.416-2.319,1.416-1.313,0-2.688-.575-2.688-1.765a1.72,1.72,0,0,1,.575-1.4C52.79,4.6,55.581,4.645,55.581,5.63ZM51.928-2.517c0-1.621.718-2.934,1.6-2.934s1.6,1.313,1.6,2.934S54.411.417,53.529.417,51.928-.9,51.928-2.517ZM-19.445,21.295c-.867,4-3.035,6.869-6.2,6.869-3.868,0-7-4.769-7-10.071,0-5.369,3.135-9.6,7-9.6,2.834,0,5.4,3.435,6.2,6.836h.834V8.69a22.847,22.847,0,0,0-7.57-1.067c-6.5,0-11.8,4.7-11.8,10.471,0,5.736,5.3,10.938,11.8,10.938a17.438,17.438,0,0,0,7.57-1.467V21.295Zm14.406-5.4a3.943,3.943,0,0,0,1.7-1.834,1.487,1.487,0,0,0-.734-1.934,1.427,1.427,0,0,0-1.867.634,1.456,1.456,0,0,0,.634,1.9c.2.1-.067.5-.367.8a7.327,7.327,0,0,0-3.835-1.034,7.19,7.19,0,0,0-7.3,7.069,7.19,7.19,0,0,0,7.3,7.069,7.19,7.19,0,0,0,7.3-7.069A6.9,6.9,0,0,0-5.04,15.892ZM-9.508,28c-1.534,0-2.768-2.9-2.768-6.5s1.234-6.5,2.768-6.5,2.768,2.9,2.768,6.5S-7.974,28-9.508,28Zm.834-15.139-1.267-3.9H-12.81l2.634,3.9ZM21.737,7.623v.834c1.634,0,3.1,1.2,2.134,3.3l-5.4,11.371-5.6-11.9a1.835,1.835,0,0,1,1.7-2.768V7.623H5.031v.834a2.4,2.4,0,0,1,2.234,1.567l8.67,18.507h1.8l8.237-17.407c.7-1.5,1.867-2.668,3.3-2.668V7.623ZM41.678,25.73V14.459H36.043v.834c1.3,0,1.5.8,1.534,2v5.269c0,2.8-1.734,4.535-3.2,4.535-1.134,0-2.134-1.034-2.134-3.4V14.459H26.606v.834c1.267,0,1.5.8,1.534,1.934v6.5a4.833,4.833,0,0,0,5.035,4.835A4.892,4.892,0,0,0,37.61,25.9v2.534h5.636V27.6c-1.267,0-1.5-.767-1.534-1.9Zm16.34.067v-6.4c0-3.435-3.2-4.869-6.369-4.869-2.3,0-6.069.9-6.069,3.568a2.067,2.067,0,0,0,4.135,0,1.941,1.941,0,0,0-.1-.634,1.749,1.749,0,0,1,1.7-2.468c1.234,0,2.6.967,2.6,3.368v.6c-1.2,2.5-9.237,1.267-9.237,6.236,0,2.4,2.067,3.368,4.3,3.368a7.5,7.5,0,0,0,4.9-1.667v1.634h5.636V27.7C58.251,27.7,58.051,26.9,58.018,25.8Zm-4.168-.2a3.268,3.268,0,0,1-2.934,1.567c-1.234,0-2.368-.6-2.368-2.034,0-3.5,3.9-3.368,5.3-5.069Z" transform="translate(2637.248 -5426.831)" fill="#333e53"/>
    <g id="Group_701" data-name="Group 701" transform="translate(2552.682 -5446)">
      <g id="Group_700" data-name="Group 700" clip-path="url(#clip-path)">
        <path id="Path_12051" data-name="Path 12051" d="M24.244,13.054c-.7,2.486,1.312,4.109,3.174,5.285,2.884,1.821,6.688,2.67,8.267,6.041,1.688,3.6-.051,7.129-1.115,10.6.073.241,1.862.685,2.286.886,4.821,2.295-4.087,4.2-5.734,4.016-.032.24.312.129.479.136a27.6,27.6,0,0,0,5.09-.551c.409.038.761.915.921,1.282,1.338,3.073.694,6.45-2.77,7.46l-18.357.048c-4.765-.959-4.418-6.12-2.155-9.4-4.419-2.57,1.379-3.271,3.17-4.143,4.859-2.364-1.433-6.073-3.236-7.9A13.942,13.942,0,0,1,10.35,14.431l1.262,2.243,2.174,2.433a8.468,8.468,0,0,0-.847-1.284C10.2,13.1,12.692,7.947,16.675,4.938a15.579,15.579,0,0,0-.728,1.4,6.07,6.07,0,0,0,1.828,5.75c-.466-1.231-1.151-2.127-1.241-3.5C16.181,3.18,23.273,1.734,27.065,0c.546.04.267,2.535.373,3.049.231,1.121,2.242,2.237,2.992,3.2,1.208,1.549,1.24,3.2,2.891,4.676.757.674,2.345,1.264,2.2,2.462a24.443,24.443,0,0,1-.821,2.49,1.88,1.88,0,0,1-1.584.766c-1.782,0-1.739-.482-3-1.136-1.091-.565-2.3-.356-3.49-.775a6.91,6.91,0,0,1-2.38-1.677m-4.128.481a23.1,23.1,0,0,0,0,2.339,8.826,8.826,0,0,0,.892,2.272c2.683,4.685,10.1,6.2,10.94,12.1.24.307.589-.854.619-.962.89-3.247-.463-4.648-2.97-6.248-3.876-2.474-9.644-4.3-9.207-9.985-.146-.051-.267.426-.274.481" transform="translate(-7.321)" fill="#333e53"/>
        <path id="Path_12052" data-name="Path 12052" d="M36.32,199.071H0c-.038-2.6,1.429-5.562,4.328-5.646l28.055.021c2.65.308,3.958,3.227,3.936,5.625" transform="translate(0 -140.206)" fill="#333e53"/>
        <path id="Path_12053" data-name="Path 12053" d="M24.955,178.978l20.19-.034c2.209.279,2.387,2.758,0,3.027H25.2c-2.213-.25-2.31-2.482-.242-2.994" transform="translate(-17.011 -129.709)" fill="#333e53"/>
      </g>
    </g>
  </g>
</svg>
