<svg id="Logo_GD_TĐ-11" data-name="Logo GD&amp;TĐ-11" xmlns="http://www.w3.org/2000/svg" width="113.884" height="40.097" viewBox="0 0 113.884 40.097">
  <g id="Group_711" data-name="Group 711" transform="translate(0.011)">
    <path id="Path_12066" data-name="Path 12066" d="M244.733,2.59,243.7,0a11.34,11.34,0,0,0-3.367,7.178s1.776-3.589,4.4-4.587Z" transform="translate(-209.484)" fill="#333e53"/>
    <path id="Path_12067" data-name="Path 12067" d="M36.736,46.906c-2.294-3.146-5.476-.629-5.476-.629l2.849-8.03,5.7,15.319h4.662L43.016,49.98a10.9,10.9,0,1,0-2.359-6.73c0,.352.021.7.053,1.041l-4.862-12a10.315,10.315,0,0,0-5.366,5.588L24.488,52.467V32.81H20.158v9.768H11.046v3.256h4.736s-.259,4.736-5.069,4.736S3.128,44.835,5.053,39.988a5.932,5.932,0,0,1,10.8-.851l3.663-1.85a8.961,8.961,0,0,0-8.844-5.069C3.98,32.476.281,37.249.1,42.059s1.333,13.185,13.284,11.8c5.014-.58,6.569-6.159,6.782-7.028v6.621h8.584c2.849-6.549,7.992-6.549,7.992-6.549ZM51.746,36.33a6.919,6.919,0,1,1-6.919,6.919A6.92,6.92,0,0,1,51.746,36.33Z" transform="translate(-0.082 -28.073)" fill="#333e53"/>
    <path id="Path_12068" data-name="Path 12068" d="M553.5,37.011a6.9,6.9,0,0,1,4.712,1.854v-4.84a11.141,11.141,0,0,0-15.429,7.141v-7.6h-4.44V45.59s.444,5.7-3.663,5.7-4-4.736-4-6.549V33.528h-4.44v7.1a10.093,10.093,0,0,0-8.547-7.06s-7.955-.037-7.918,0V54.248h7.216s7.216-.153,9.291-7.158c.19,2.079,1.324,7.956,8.062,7.713,8.177-.3,8.251-5.846,8.436-7.363v-.745A11.056,11.056,0,0,0,553.5,54.871a11.167,11.167,0,0,0,4.712-1.035V49A6.919,6.919,0,1,1,553.5,37.011ZM522.21,45.552c-.555,5.661-7.992,5.217-7.992,5.217V37C520.36,36.894,522.765,39.891,522.21,45.552Z" transform="translate(-444.338 -28.754)" fill="#333e53"/>
    <path id="Path_12069" data-name="Path 12069" d="M689.7,209.36H685.06a2.393,2.393,0,0,0,4.643,0Z" transform="translate(-597.114 -182.48)" fill="#333e53"/>
  </g>
  <path id="Subtraction_1" data-name="Subtraction 1" d="M48.661,10.273H2.569A2.567,2.567,0,0,1,0,7.7V2.569A2.568,2.568,0,0,1,2.569,0H48.232a3,3,0,0,1,3,3V7.7a2.568,2.568,0,0,1-2.569,2.569Zm-9.387-7.3a2.656,2.656,0,0,0-1.42.384,2.429,2.429,0,0,0-.551.467,2.761,2.761,0,0,0-.411.634,3.855,3.855,0,0,0-.34,1.662v.316a3.756,3.756,0,0,0,.347,1.63,2.545,2.545,0,0,0,.965,1.09,2.82,2.82,0,0,0,2.841-.005,2.516,2.516,0,0,0,.954-1.1A3.885,3.885,0,0,0,41.993,6.4h0V6.115a3.848,3.848,0,0,0-.34-1.656,2.553,2.553,0,0,0-.962-1.1A2.663,2.663,0,0,0,39.274,2.973Zm-17.588.089V7.318a2.506,2.506,0,0,0,.175.925,1.929,1.929,0,0,0,.5.7,2.535,2.535,0,0,0,1.777.592,3.161,3.161,0,0,0,1.016-.152,2.141,2.141,0,0,0,.776-.458,1.966,1.966,0,0,0,.492-.72,2.545,2.545,0,0,0,.164-.939V3.063H25.261V7.316a1.248,1.248,0,0,1-.291.875,1.117,1.117,0,0,1-.837.292A1.16,1.16,0,0,1,23.3,8.2,1.227,1.227,0,0,1,23,7.28V3.062Zm8.822,3.571V9.45h1.978a3.017,3.017,0,0,0,1.5-.387A2.633,2.633,0,0,0,35.024,7.99a3.345,3.345,0,0,0,.367-1.584V6.111a3.358,3.358,0,0,0-.374-1.591,2.647,2.647,0,0,0-1.037-1.08,3,3,0,0,0-1.507-.38H30.507V5.83h-.79v.8Zm-13.892.078h2.567V9.45H20.5V3.06H19.182v2.59H16.615V3.06H15.3V9.45h1.316V6.711Zm-5.44-2.585V9.45h1.316V4.126h1.958V3.06H9.244V4.126Zm28.1-2.133h0l.675.637,1.009,0V2.575h0L39.642,1.349h-.737l-1.3,1.209v.069l.991,0,.675-.637ZM23.586.77l-.031.592c.413,0,.623.1.623.3a.213.213,0,0,1-.142.2,1.429,1.429,0,0,1-.464.081l.066.588h.954V2.258a.867.867,0,0,0,.478-.208.554.554,0,0,0,.18-.424.63.63,0,0,0-.1-.357A.874.874,0,0,0,24.83,1,2.68,2.68,0,0,0,23.586.77Zm15.7,7.689a1.28,1.28,0,0,1-.6-.135,1.191,1.191,0,0,1-.439-.4A2.739,2.739,0,0,1,37.886,6.4V6.09a3.887,3.887,0,0,1,.094-.877,1.872,1.872,0,0,1,.271-.636,1.173,1.173,0,0,1,.434-.387,1.292,1.292,0,0,1,.588-.129,1.179,1.179,0,0,1,1.027.523,2.705,2.705,0,0,1,.36,1.527h0v.312A2.713,2.713,0,0,1,40.3,7.94,1.151,1.151,0,0,1,39.282,8.46ZM32.46,8.393h-.637V6.633h.962v-.8h-.962v-1.7h.65a1.746,1.746,0,0,1,.684.125,1.269,1.269,0,0,1,.5.377,2.332,2.332,0,0,1,.4,1.476v.3a2.336,2.336,0,0,1-.408,1.473,1.287,1.287,0,0,1-.5.387A1.722,1.722,0,0,1,32.46,8.393Z" transform="translate(0 29.787)" fill="#333e53"/>
  <g id="Group_713" data-name="Group 713" transform="translate(55.26 34.803)">
    <path id="Path_12076" data-name="Path 12076" d="M430.4,281.819V278.35h1.215a1.6,1.6,0,0,1,.958.241.829.829,0,0,1,.326.709.787.787,0,0,1-.131.449.758.758,0,0,1-.364.285.733.733,0,0,1,.42.27.794.794,0,0,1,.154.5.915.915,0,0,1-.32.758,1.431,1.431,0,0,1-.91.262H430.4Zm.715-2.014h.529c.361-.006.541-.15.541-.431a.4.4,0,0,0-.137-.339.717.717,0,0,0-.432-.1h-.5v.874Zm0,.5v.936h.612a.588.588,0,0,0,.394-.121.41.41,0,0,0,.141-.332.436.436,0,0,0-.493-.484h-.655Z" transform="translate(-430.4 -277.415)" fill="#333e53"/>
    <path id="Path_12077" data-name="Path 12077" d="M454.622,274.8h-1.253l-.239.715h-.76l1.292-3.469h.662l1.3,3.469h-.76Zm-1.059-.579h.867l-.437-1.3-.431,1.3Zm.579-3.1h.75l-.66.738h-.56Z" transform="translate(-449.549 -271.114)" fill="#333e53"/>
    <path id="Path_12078" data-name="Path 12078" d="M482.364,279.859a2.1,2.1,0,0,1-.181.9,1.372,1.372,0,0,1-.519.6,1.533,1.533,0,0,1-1.542,0,1.37,1.37,0,0,1-.524-.592,2.056,2.056,0,0,1-.189-.885v-.172a2.081,2.081,0,0,1,.185-.9,1.377,1.377,0,0,1,.522-.6,1.53,1.53,0,0,1,1.54,0,1.358,1.358,0,0,1,.521.6,2.075,2.075,0,0,1,.185.9v.155Zm-.724-.158a1.471,1.471,0,0,0-.2-.829.69.69,0,0,0-1.112,0,1.442,1.442,0,0,0-.2.821v.169a1.481,1.481,0,0,0,.2.824.634.634,0,0,0,.562.293.621.621,0,0,0,.552-.283,1.467,1.467,0,0,0,.2-.823v-.17Z" transform="translate(-473.118 -277.11)" fill="#333e53"/>
    <path id="Path_12079" data-name="Path 12079" d="M518.09,281.059a1.239,1.239,0,0,1-.546.358,2.3,2.3,0,0,1-.782.127,1.546,1.546,0,0,1-.789-.2,1.313,1.313,0,0,1-.524-.57,1.991,1.991,0,0,1-.189-.88v-.236a2.144,2.144,0,0,1,.175-.9,1.3,1.3,0,0,1,.5-.582,1.661,1.661,0,0,1,1.737.093,1.252,1.252,0,0,1,.412.856h-.7a.692.692,0,0,0-.21-.437.672.672,0,0,0-.449-.138.635.635,0,0,0-.555.273,1.441,1.441,0,0,0-.193.815v.222a1.378,1.378,0,0,0,.207.824.707.707,0,0,0,.607.279.793.793,0,0,0,.574-.172v-.6h-.651v-.527h1.365v1.384Z" transform="translate(-504.365 -277.093)" fill="#333e53"/>
    <path id="Path_12080" data-name="Path 12080" d="M542.875,281.819h-.715V278.35h.715Z" transform="translate(-527.811 -277.415)" fill="#333e53"/>
    <path id="Path_12081" data-name="Path 12081" d="M552.852,274.8H551.6l-.239.715h-.76l1.292-3.469h.662l1.3,3.469h-.76Zm-1.059-.579h.867l-.436-1.3-.432,1.3Zm.578-3.1h.749l-.66.738h-.56Z" transform="translate(-535.167 -271.114)" fill="#333e53"/>
    <path id="Path_12082" data-name="Path 12082" d="M580.594,279.859a2.1,2.1,0,0,1-.181.9,1.37,1.37,0,0,1-.519.6,1.534,1.534,0,0,1-1.542,0,1.37,1.37,0,0,1-.524-.592,2.063,2.063,0,0,1-.188-.885v-.172a2.075,2.075,0,0,1,.185-.9,1.379,1.379,0,0,1,.521-.6,1.531,1.531,0,0,1,1.541,0,1.359,1.359,0,0,1,.521.6,2.075,2.075,0,0,1,.185.9v.155Zm-.724-.158a1.472,1.472,0,0,0-.2-.829.689.689,0,0,0-1.112,0,1.439,1.439,0,0,0-.2.821v.169a1.48,1.48,0,0,0,.2.824.633.633,0,0,0,.562.293.621.621,0,0,0,.552-.283,1.465,1.465,0,0,0,.2-.823v-.17Z" transform="translate(-558.736 -277.11)" fill="#333e53"/>
    <path id="Path_12083" data-name="Path 12083" d="M614.16,281.819V278.35h1.067a1.616,1.616,0,0,1,.818.207,1.428,1.428,0,0,1,.564.586,1.806,1.806,0,0,1,.2.864v.159a1.817,1.817,0,0,1-.2.86,1.421,1.421,0,0,1-.561.584,1.62,1.62,0,0,1-.816.209H614.16Zm.714-2.889v2.316h.345a.776.776,0,0,0,.641-.273,1.236,1.236,0,0,0,.226-.783v-.184a1.252,1.252,0,0,0-.22-.8.772.772,0,0,0-.641-.272h-.353Z" transform="translate(-590.567 -277.415)" fill="#333e53"/>
    <path id="Path_12084" data-name="Path 12084" d="M641.258,278.36v2.284a1.167,1.167,0,0,1-.356.9,1.6,1.6,0,0,1-1.938.01,1.152,1.152,0,0,1-.365-.883V278.36h.715v2.289a.659.659,0,0,0,.163.5.628.628,0,0,0,.452.157c.4,0,.606-.211.612-.634V278.36h.717Zm-1.724,4.026a.3.3,0,0,1,.107-.236.4.4,0,0,1,.276-.093.415.415,0,0,1,.278.093.3.3,0,0,1,.106.236.3.3,0,0,1-.106.236.405.405,0,0,1-.28.1.4.4,0,0,1-.279-.1.311.311,0,0,1-.1-.236Z" transform="translate(-611.869 -277.424)" fill="#333e53"/>
    <path id="Path_12085" data-name="Path 12085" d="M665.877,280.343a1.227,1.227,0,0,1-.413.882,1.453,1.453,0,0,1-.982.321,1.3,1.3,0,0,1-1.049-.45,1.835,1.835,0,0,1-.382-1.232v-.212a2.09,2.09,0,0,1,.176-.882,1.324,1.324,0,0,1,.5-.585,1.574,1.574,0,0,1,1.728.117,1.316,1.316,0,0,1,.424.9h-.715a.722.722,0,0,0-.188-.487.692.692,0,0,0-.489-.151.612.612,0,0,0-.536.255,1.436,1.436,0,0,0-.182.795v.262a1.527,1.527,0,0,0,.171.822.594.594,0,0,0,.537.259.7.7,0,0,0,.494-.151.688.688,0,0,0,.187-.469h.715Z" transform="translate(-633.18 -277.093)" fill="#333e53"/>
    <path id="Path_12086" data-name="Path 12086" d="M697.074,280.572a.8.8,0,0,1,.135-.445,1.85,1.85,0,0,1,.494-.455,2.428,2.428,0,0,1-.242-.389.856.856,0,0,1-.089-.38.892.892,0,0,1,.255-.659.936.936,0,0,1,.689-.254.9.9,0,0,1,.637.231.755.755,0,0,1,.25.576.912.912,0,0,1-.42.732l-.267.193.6.7a1.323,1.323,0,0,0,.141-.61h.585a1.792,1.792,0,0,1-.312,1.1l.519.6h-.782l-.178-.206a1.568,1.568,0,0,1-.882.253,1.222,1.222,0,0,1-.824-.271.9.9,0,0,1-.31-.711Zm1.167.426a.883.883,0,0,0,.47-.137l-.684-.788-.051.036a.544.544,0,0,0-.212.425.448.448,0,0,0,.132.336.473.473,0,0,0,.344.13Zm-.253-2.106a.812.812,0,0,0,.21.451l.184-.122a.632.632,0,0,0,.194-.176.381.381,0,0,0,.054-.206.28.28,0,0,0-.088-.207.306.306,0,0,0-.226-.089.312.312,0,0,0-.237.095.358.358,0,0,0-.09.253Z" transform="translate(-662.831 -277.101)" fill="#333e53"/>
    <path id="Path_12087" data-name="Path 12087" d="M732.636,278.939h-1.063v2.89h-.715v-2.89H729.81v-.579h2.826Z" transform="translate(-691.368 -277.424)" fill="#333e53"/>
    <path id="Path_12088" data-name="Path 12088" d="M757.813,281.819H757.1v-1.487H755.7v1.487h-.715V278.35h.715v1.406H757.1V278.35h.715Z" transform="translate(-713.315 -277.415)" fill="#333e53"/>
    <path id="Path_12089" data-name="Path 12089" d="M783.864,273.819a2.1,2.1,0,0,1-.181.9,1.366,1.366,0,0,1-.519.6,1.532,1.532,0,0,1-1.542,0,1.368,1.368,0,0,1-.524-.592,2.062,2.062,0,0,1-.189-.885v-.172a2.08,2.08,0,0,1,.185-.9,1.376,1.376,0,0,1,.522-.6,1.435,1.435,0,0,1,.77-.208,1.485,1.485,0,0,1,.594.116,1.321,1.321,0,0,1,.464.332.327.327,0,0,0,.239-.214,1.278,1.278,0,0,0,.064-.448h.468q0,.82-.544,1a2.083,2.083,0,0,1,.193.9v.176Zm-1.122-2.011h-.565l-.657-.738h.75l.471.738Zm.4,1.853a1.47,1.47,0,0,0-.195-.829.689.689,0,0,0-1.112,0,1.439,1.439,0,0,0-.2.821v.169a1.479,1.479,0,0,0,.195.824.634.634,0,0,0,.563.293.621.621,0,0,0,.552-.283,1.464,1.464,0,0,0,.195-.823v-.169Z" transform="translate(-735.907 -271.07)" fill="#333e53"/>
    <path id="Path_12090" data-name="Path 12090" d="M809.545,281.819h-.715V278.35h.715Z" transform="translate(-760.243 -277.415)" fill="#333e53"/>
    <path id="Path_12091" data-name="Path 12091" d="M826.669,281.819V280.29h-.429v-.437h.429v-1.5h1.067a1.621,1.621,0,0,1,.818.207,1.43,1.43,0,0,1,.563.586,1.8,1.8,0,0,1,.2.864v.159a1.816,1.816,0,0,1-.2.86,1.419,1.419,0,0,1-.561.584,1.621,1.621,0,0,1-.816.209Zm1.236-1.529h-.521v.955h.345a.776.776,0,0,0,.646-.28,1.26,1.26,0,0,0,.222-.8V280a1.254,1.254,0,0,0-.219-.8.773.773,0,0,0-.641-.272h-.353v.924h.521v.437Z" transform="translate(-775.417 -277.415)" fill="#333e53"/>
    <path id="Path_12092" data-name="Path 12092" d="M854.242,281.114h-1.254l-.238.715h-.76l1.292-3.469h.663l1.3,3.469h-.76Zm-1.061-.579h.867l-.437-1.3-.432,1.3Zm.069,1.836a.3.3,0,0,1,.107-.236.4.4,0,0,1,.276-.092.414.414,0,0,1,.279.092.3.3,0,0,1,.106.236.3.3,0,0,1-.106.236.407.407,0,0,1-.28.1.4.4,0,0,1-.278-.1.309.309,0,0,1-.106-.236Z" transform="translate(-797.861 -277.424)" fill="#333e53"/>
    <path id="Path_12093" data-name="Path 12093" d="M880.905,281.819h-.715V278.35h.715Z" transform="translate(-822.44 -277.415)" fill="#333e53"/>
  </g>
  <g id="Group_714" data-name="Group 714" transform="translate(74.107 29.787)">
    <path id="Path_12094" data-name="Path 12094" d="M579.572,241.82a1.036,1.036,0,0,1-.348.742,1.222,1.222,0,0,1-.828.271,1.1,1.1,0,0,1-.884-.379,1.553,1.553,0,0,1-.322-1.039v-.178a1.735,1.735,0,0,1,.149-.742,1.111,1.111,0,0,1,.424-.493,1.323,1.323,0,0,1,1.455.1,1.113,1.113,0,0,1,.357.76h-.6a.614.614,0,0,0-.158-.411.583.583,0,0,0-.412-.127.512.512,0,0,0-.45.216,1.212,1.212,0,0,0-.154.669v.221a1.28,1.28,0,0,0,.144.692.5.5,0,0,0,.451.218.592.592,0,0,0,.416-.127.579.579,0,0,0,.158-.394h.6Z" transform="translate(-577.19 -238.825)" fill="#333e53"/>
    <path id="Path_12095" data-name="Path 12095" d="M601.2,243.081h-.6v-1.252h-1.174v1.252h-.6V240.16h.6v1.184H600.6V240.16h.6Z" transform="translate(-596.043 -239.112)" fill="#333e53"/>
    <path id="Path_12096" data-name="Path 12096" d="M623.449,240.151v1.923a.987.987,0,0,1-.3.759,1.349,1.349,0,0,1-1.632.008.969.969,0,0,1-.307-.745V240.15h.6v1.929a.558.558,0,0,0,.138.418.527.527,0,0,0,.38.131c.338,0,.51-.177.516-.534V240.15h.6Z" transform="translate(-615.558 -239.104)" fill="#333e53"/>
    <path id="Path_12097" data-name="Path 12097" d="M641.746,241.476l.607-1.316h.658l-.959,1.862v1.059h-.612v-1.059l-.959-1.862h.66l.6,1.316Z" transform="translate(-632.354 -239.112)" fill="#333e53"/>
    <path id="Path_12098" data-name="Path 12098" d="M664.028,236.472h-1.156v.782h1.356v.484H662.27v-2.921h1.955v.488h-1.352v.7h1.156Zm.026-1.882v.024h-.461l-.31-.29-.309.291h-.453v-.033l.593-.552h.336l.6.561Z" transform="translate(-651.346 -233.769)" fill="#333e53"/>
    <path id="Path_12099" data-name="Path 12099" d="M682.645,243.081h-.6l-1.171-1.922v1.922h-.6V240.16h.6l1.173,1.926V240.16h.6Z" transform="translate(-667.035 -239.112)" fill="#333e53"/>
    <path id="Path_12100" data-name="Path 12100" d="M710.86,240.648h-.895v2.433h-.6v-2.433h-.884v-.488h2.38v.488Z" transform="translate(-691.623 -239.112)" fill="#333e53"/>
    <path id="Path_12101" data-name="Path 12101" d="M730.781,242.011H730.3v1.069h-.6V240.16h1.085a1.227,1.227,0,0,1,.8.231.8.8,0,0,1,.281.652.9.9,0,0,1-.13.5.888.888,0,0,1-.391.318l.631,1.194v.028h-.646l-.548-1.07Zm-.48-.487h.485a.492.492,0,0,0,.35-.115.411.411,0,0,0,.125-.318.443.443,0,0,0-.116-.325.491.491,0,0,0-.36-.118H730.3Z" transform="translate(-710.119 -239.112)" fill="#333e53"/>
    <path id="Path_12102" data-name="Path 12102" d="M750.1,242.479H749.04l-.2.6h-.64l1.088-2.921h.557l1.094,2.921H750.3l-.2-.6Zm-.893-.486h.731l-.367-1.094Z" transform="translate(-726.244 -239.112)" fill="#333e53"/>
    <path id="Path_12103" data-name="Path 12103" d="M774.026,243.081h-.6l-1.171-1.922v1.922h-.6V240.16h.6l1.173,1.926V240.16h.6Z" transform="translate(-746.683 -239.112)" fill="#333e53"/>
    <path id="Path_12104" data-name="Path 12104" d="M796.063,242.442a1.047,1.047,0,0,1-.46.3,1.915,1.915,0,0,1-.658.108,1.3,1.3,0,0,1-.665-.166,1.112,1.112,0,0,1-.442-.48,1.685,1.685,0,0,1-.159-.741v-.2a1.784,1.784,0,0,1,.148-.758,1.1,1.1,0,0,1,.425-.489,1.4,1.4,0,0,1,1.464.078,1.06,1.06,0,0,1,.347.722h-.586a.591.591,0,0,0-.177-.367.571.571,0,0,0-.379-.117.534.534,0,0,0-.468.231,1.22,1.22,0,0,0-.163.686v.186a1.152,1.152,0,0,0,.175.695.6.6,0,0,0,.511.235.678.678,0,0,0,.484-.144v-.5h-.548v-.443h1.149v1.166Z" transform="translate(-765.884 -238.842)" fill="#333e53"/>
    <path id="Path_12105" data-name="Path 12105" d="M825.7,241.82a1.033,1.033,0,0,1-.348.742,1.219,1.219,0,0,1-.828.271,1.1,1.1,0,0,1-.884-.379,1.55,1.55,0,0,1-.322-1.039v-.178a1.737,1.737,0,0,1,.149-.742,1.109,1.109,0,0,1,.423-.493,1.323,1.323,0,0,1,1.455.1,1.112,1.112,0,0,1,.357.76h-.6a.616.616,0,0,0-.158-.411.584.584,0,0,0-.413-.127.513.513,0,0,0-.45.216,1.213,1.213,0,0,0-.154.669v.221a1.282,1.282,0,0,0,.144.692.5.5,0,0,0,.452.218.594.594,0,0,0,.416-.127.578.578,0,0,0,.158-.394h.6Z" transform="translate(-791.719 -238.825)" fill="#333e53"/>
    <path id="Path_12106" data-name="Path 12106" d="M846.959,233.048v1.923a.985.985,0,0,1-.3.759,1.348,1.348,0,0,1-1.631.008.968.968,0,0,1-.307-.745v-1.947h.6v1.928a.559.559,0,0,0,.137.419.528.528,0,0,0,.38.131c.338,0,.51-.177.516-.534v-1.944h.6Zm-1.346-.239-.03-.268a.649.649,0,0,0,.212-.037.1.1,0,0,0,.066-.094q0-.139-.285-.139l.014-.271a1.228,1.228,0,0,1,.569.1.319.319,0,0,1,.191.286.249.249,0,0,1-.082.194.4.4,0,0,1-.218.095v.128h-.435Z" transform="translate(-810.371 -232)" fill="#333e53"/>
    <path id="Path_12107" data-name="Path 12107" d="M865.985,242.479H864.93l-.2.6h-.639l1.088-2.921h.557l1.094,2.921h-.639l-.2-.6Zm-.892-.486h.73l-.367-1.094Z" transform="translate(-827.254 -239.112)" fill="#333e53"/>
  </g>
</svg>
