<svg id="Logo_GD_TĐ-15" data-name="Logo GD&amp;TĐ-15" xmlns="http://www.w3.org/2000/svg" width="97.292" height="40.097" viewBox="0 0 97.292 40.097">
  <g id="Group_709" data-name="Group 709" transform="translate(7.236 25.094)">
    <ellipse id="Ellipse_55" data-name="Ellipse 55" cx="2.949" cy="2.466" rx="2.949" ry="2.466" transform="translate(8.253 8.476)" fill="#333e53"/>
    <g id="Group_708" data-name="Group 708">
      <path id="Path_12054" data-name="Path 12054" d="M74.05,228.7a5.7,5.7,0,0,1,.9,3.159l2.868,7.027,3.062-7.446,2.031.032-2.191,5.35a5.461,5.461,0,0,1,6.7-.386s.419-2.482-1.386-3.094a4.375,4.375,0,0,0-3.126.032l.9-2s4.9-.29,5.383,3.352v8.735h2.385V230.505l-1.933-1.773H85.268a6.3,6.3,0,0,0,1.1,2.256,6.241,6.241,0,0,1-3.03-2.256s-9.283,0-9.283-.032Z" transform="translate(-73.178 -228.7)" fill="#333e53"/>
      <path id="Path_12055" data-name="Path 12055" d="M110.847,322.11l-1.837,4.609h4.352s-2.579-.838-2.514-4.609Z" transform="translate(-104.302 -311.861)" fill="#333e53"/>
      <path id="Path_12056" data-name="Path 12056" d="M67.075,287.74l3.578,8.38H68.365S64.3,292.994,67.075,287.74Z" transform="translate(-66.107 -281.262)" fill="#333e53"/>
      <path id="Path_12057" data-name="Path 12057" d="M181.56,355.028h1.6V353.98A3.134,3.134,0,0,1,181.56,355.028Z" transform="translate(-168.892 -340.234)" fill="#333e53"/>
    </g>
  </g>
  <g id="Group_710" data-name="Group 710" transform="translate(0 0)">
    <path id="Path_12058" data-name="Path 12058" d="M232.3,217.393a7.671,7.671,0,0,0-2.271-3.465,3.331,3.331,0,0,0,.989-2.51c0-.013,0-.025,0-.038a1.141,1.141,0,1,0-1.138,1.059,1.454,1.454,0,0,1,.011,1.373,7.811,7.811,0,0,0-12.671,4.484v-5.93h-3.031v5.821h-5.6v-5.812H196.55V215h3.1v12.075h3.205V215h2.71v12.075h3.031v-6.515h5.6v6.515h3.031v-6.034a7.8,7.8,0,0,0,15.078.9v5.131h3.1V212.437h-3.1v4.955Zm-7.428,7.127a4.852,4.852,0,1,1,4.852-4.852A4.852,4.852,0,0,1,224.875,224.52Z" transform="translate(-175.001 -187.243)" fill="#333e53"/>
    <path id="Path_12059" data-name="Path 12059" d="M244.092,2.213,243.207,0a9.7,9.7,0,0,0-2.877,6.133s1.517-3.067,3.761-3.919Z" transform="translate(-213.977)" fill="#333e53"/>
    <path id="Path_12060" data-name="Path 12060" d="M31.478,44.747c-1.96-2.687-4.679-.538-4.679-.538l2.434-6.86L34.1,50.436h3.983l-1.242-3.065a9.313,9.313,0,1,0-2.016-5.751c0,.3.018.6.045.889L30.718,32.258a8.811,8.811,0,0,0-4.584,4.773L21.013,49.494V32.7h-3.7v8.346H9.528v2.782h4.047a4.25,4.25,0,0,1-4.331,4.047c-4.109,0-6.48-4.9-4.837-9.041a5.069,5.069,0,0,1,9.231-.727l3.129-1.581A7.657,7.657,0,0,0,9.212,32.2c-5.719.222-8.88,4.3-9.038,8.409S1.313,51.87,11.523,50.69c4.284-.5,5.612-5.262,5.795-6v5.656h7.334c2.434-5.595,6.828-5.595,6.828-5.595ZM44.3,35.711a5.911,5.911,0,1,1-5.911,5.912A5.912,5.912,0,0,1,44.3,35.711Z" transform="translate(-0.162 -28.657)" fill="#333e53"/>
    <path id="Path_12061" data-name="Path 12061" d="M547.073,36.416A5.891,5.891,0,0,1,551.1,38V33.864a9.519,9.519,0,0,0-13.182,6.1V33.47h-3.793V43.744s.38,4.869-3.129,4.869-3.415-4.047-3.415-5.595V33.44h-3.793V39.5a8.622,8.622,0,0,0-7.3-6.032s-6.8-.032-6.765,0V51.143h6.165s6.165-.131,7.937-6.115c.163,1.775,1.13,6.8,6.888,6.589,6.987-.252,7.05-4.995,7.208-6.291V44.69a9.519,9.519,0,0,0,13.182,6.1V46.655a5.911,5.911,0,1,1-4.026-10.238Zm-26.732,7.3c-.474,4.837-6.828,4.457-6.828,4.457V36.411C518.759,36.317,520.815,38.877,520.341,43.713Z" transform="translate(-453.808 -29.361)" fill="#333e53"/>
    <path id="Path_12062" data-name="Path 12062" d="M688.927,209.31H684.96a2.045,2.045,0,0,0,3.968,0Z" transform="translate(-609.82 -186.343)" fill="#333e53"/>
    <path id="Path_12063" data-name="Path 12063" d="M599.407,240.473l-5.658-14.312a6.037,6.037,0,0,0-3.793,3.731l-2.041,4.982a7.962,7.962,0,0,0-1.152-5.14c-2.181-3.6-8.6-3.193-8.6-3.193h-2.118v5.911h-.916v2.655h.916v6.07h3.1s3.477-.158,4.742-.79a7.565,7.565,0,0,0,2.658-2.167l-1.173,2.863c-.032-.032,3.287,0,3.287,0,2.275-4.773,5.564-4.711,5.564-4.711a2.8,2.8,0,0,0-3.731-.442l1.9-5.5,4.047,10.685h2.971v.064h3.1V226.541h-3.1v13.933Zm-14.638-6.03c-.158,4.3-4.679,4.237-4.679,4.237h-.948v-3.573h2.307v-2.655h-2.307v-3.477H580.5c1.739,0,4.425,1.17,4.267,5.469Z" transform="translate(-512.041 -201.345)" fill="#333e53"/>
    <path id="Path_12064" data-name="Path 12064" d="M717.614,348.03a2.126,2.126,0,0,0-1.984,1.549H719.6a2.128,2.128,0,0,0-1.984-1.549Z" transform="translate(-637.125 -309.842)" fill="#333e53"/>
    <path id="Path_12065" data-name="Path 12065" d="M449.07,198.5a8.545,8.545,0,0,0,3.936,3.035,7.13,7.13,0,0,1-1.422-3.035h-2.513Z" transform="translate(-399.813 -176.719)" fill="#333e53"/>
  </g>
</svg>
