<svg xmlns="http://www.w3.org/2000/svg" xmlns:xlink="http://www.w3.org/1999/xlink" width="32" height="32" viewBox="0 0 32 32">
  <defs>
    <clipPath id="clip-path">
      <rect id="Rectangle_5495" data-name="Rectangle 5495" width="32" height="32" rx="16" fill="#333e53"/>
    </clipPath>
  </defs>
  <g id="Mask_Group_10428" data-name="Mask Group 10428" clip-path="url(#clip-path)">
    <path id="account_circle_24dp_E3E3E3_FILL1_wght400_GRAD0_opsz24" d="M10.96-28.64a16.7,16.7,0,0,1,4.56-2.46A15.58,15.58,0,0,1,20.8-32a15.58,15.58,0,0,1,5.28.9,16.7,16.7,0,0,1,4.56,2.46,12.367,12.367,0,0,0,2.18-3.72,12.541,12.541,0,0,0,.78-4.44,12.339,12.339,0,0,0-3.74-9.06A12.339,12.339,0,0,0,20.8-49.6a12.339,12.339,0,0,0-9.06,3.74A12.339,12.339,0,0,0,8-36.8a12.541,12.541,0,0,0,.78,4.44A12.367,12.367,0,0,0,10.96-28.64Zm5.86-8.18A5.41,5.41,0,0,1,15.2-40.8a5.41,5.41,0,0,1,1.62-3.98A5.41,5.41,0,0,1,20.8-46.4a5.41,5.41,0,0,1,3.98,1.62A5.41,5.41,0,0,1,26.4-40.8a5.41,5.41,0,0,1-1.62,3.98A5.41,5.41,0,0,1,20.8-35.2,5.41,5.41,0,0,1,16.82-36.82ZM20.8-20.8a15.58,15.58,0,0,1-6.24-1.26,16.158,16.158,0,0,1-5.08-3.42,16.158,16.158,0,0,1-3.42-5.08A15.58,15.58,0,0,1,4.8-36.8a15.58,15.58,0,0,1,1.26-6.24,16.158,16.158,0,0,1,3.42-5.08,16.158,16.158,0,0,1,5.08-3.42A15.58,15.58,0,0,1,20.8-52.8a15.58,15.58,0,0,1,6.24,1.26,16.158,16.158,0,0,1,5.08,3.42,16.158,16.158,0,0,1,3.42,5.08A15.58,15.58,0,0,1,36.8-36.8a15.58,15.58,0,0,1-1.26,6.24,16.158,16.158,0,0,1-3.42,5.08,16.158,16.158,0,0,1-5.08,3.42A15.58,15.58,0,0,1,20.8-20.8Z" transform="translate(-4.8 52.8)" fill="#333e53"/>
  </g>
</svg>
