<svg xmlns="http://www.w3.org/2000/svg" xmlns:xlink="http://www.w3.org/1999/xlink" width="707" height="437" viewBox="0 0 707 437">
  <defs>
    <clipPath id="clip-path">
      <rect id="Rectangle_5575" data-name="Rectangle 5575" width="707" height="437" rx="32" fill="#d7e2ff"/>
    </clipPath>
    <clipPath id="clip-path-2">
      <rect width="355" height="425" fill="none"/>
    </clipPath>
    <linearGradient id="linear-gradient" x1="0.987" y1="0.012" x2="0.071" y2="0.678" gradientUnits="objectBoundingBox">
      <stop offset="0" stop-color="#d7e2ff" stop-opacity="0"/>
      <stop offset="1" stop-color="#d7e2ff"/>
    </linearGradient>
  </defs>
  <g id="Mask_Group_5460" data-name="Mask Group 5460" clip-path="url(#clip-path)">
    <g id="Group_852" data-name="Group 852" transform="translate(386)">
      <g id="Repeat_Grid_72" data-name="Repeat Grid 72" clip-path="url(#clip-path-2)">
        <g id="Group_851" data-name="Group 851" transform="translate(-1430.382 -1757)">
          <rect id="Rectangle_5570" data-name="Rectangle 5570" width="58" height="58" transform="translate(1487.382 1757)" fill="#d7e2ff"/>
          <rect id="Rectangle_5571" data-name="Rectangle 5571" width="58" height="57" transform="translate(1487.382 1815)" fill="#edf0ff"/>
          <rect id="Rectangle_5572" data-name="Rectangle 5572" width="57" height="57" transform="translate(1430.382 1815)" fill="#d7e2ff"/>
          <rect id="Rectangle_5573" data-name="Rectangle 5573" width="57" height="58" transform="translate(1430.382 1757)" fill="#edf0ff"/>
        </g>
        <g id="Group_851-2" data-name="Group 851" transform="translate(-1315.382 -1757)">
          <rect id="Rectangle_5570-2" data-name="Rectangle 5570" width="58" height="58" transform="translate(1487.382 1757)" fill="#d7e2ff"/>
          <rect id="Rectangle_5571-2" data-name="Rectangle 5571" width="58" height="57" transform="translate(1487.382 1815)" fill="#edf0ff"/>
          <rect id="Rectangle_5572-2" data-name="Rectangle 5572" width="57" height="57" transform="translate(1430.382 1815)" fill="#d7e2ff"/>
          <rect id="Rectangle_5573-2" data-name="Rectangle 5573" width="57" height="58" transform="translate(1430.382 1757)" fill="#edf0ff"/>
        </g>
        <g id="Group_851-3" data-name="Group 851" transform="translate(-1200.382 -1757)">
          <rect id="Rectangle_5570-3" data-name="Rectangle 5570" width="58" height="58" transform="translate(1487.382 1757)" fill="#d7e2ff"/>
          <rect id="Rectangle_5571-3" data-name="Rectangle 5571" width="58" height="57" transform="translate(1487.382 1815)" fill="#edf0ff"/>
          <rect id="Rectangle_5572-3" data-name="Rectangle 5572" width="57" height="57" transform="translate(1430.382 1815)" fill="#d7e2ff"/>
          <rect id="Rectangle_5573-3" data-name="Rectangle 5573" width="57" height="58" transform="translate(1430.382 1757)" fill="#edf0ff"/>
        </g>
        <g id="Group_851-4" data-name="Group 851" transform="translate(-1085.382 -1757)">
          <rect id="Rectangle_5570-4" data-name="Rectangle 5570" width="58" height="58" transform="translate(1487.382 1757)" fill="#d7e2ff"/>
          <rect id="Rectangle_5571-4" data-name="Rectangle 5571" width="58" height="57" transform="translate(1487.382 1815)" fill="#edf0ff"/>
          <rect id="Rectangle_5572-4" data-name="Rectangle 5572" width="57" height="57" transform="translate(1430.382 1815)" fill="#d7e2ff"/>
          <rect id="Rectangle_5573-4" data-name="Rectangle 5573" width="57" height="58" transform="translate(1430.382 1757)" fill="#edf0ff"/>
        </g>
        <g id="Group_851-5" data-name="Group 851" transform="translate(-1430.382 -1642)">
          <rect id="Rectangle_5570-5" data-name="Rectangle 5570" width="58" height="58" transform="translate(1487.382 1757)" fill="#d7e2ff"/>
          <rect id="Rectangle_5571-5" data-name="Rectangle 5571" width="58" height="57" transform="translate(1487.382 1815)" fill="#edf0ff"/>
          <rect id="Rectangle_5572-5" data-name="Rectangle 5572" width="57" height="57" transform="translate(1430.382 1815)" fill="#d7e2ff"/>
          <rect id="Rectangle_5573-5" data-name="Rectangle 5573" width="57" height="58" transform="translate(1430.382 1757)" fill="#edf0ff"/>
        </g>
        <g id="Group_851-6" data-name="Group 851" transform="translate(-1315.382 -1642)">
          <rect id="Rectangle_5570-6" data-name="Rectangle 5570" width="58" height="58" transform="translate(1487.382 1757)" fill="#d7e2ff"/>
          <rect id="Rectangle_5571-6" data-name="Rectangle 5571" width="58" height="57" transform="translate(1487.382 1815)" fill="#edf0ff"/>
          <rect id="Rectangle_5572-6" data-name="Rectangle 5572" width="57" height="57" transform="translate(1430.382 1815)" fill="#d7e2ff"/>
          <rect id="Rectangle_5573-6" data-name="Rectangle 5573" width="57" height="58" transform="translate(1430.382 1757)" fill="#edf0ff"/>
        </g>
        <g id="Group_851-7" data-name="Group 851" transform="translate(-1200.382 -1642)">
          <rect id="Rectangle_5570-7" data-name="Rectangle 5570" width="58" height="58" transform="translate(1487.382 1757)" fill="#d7e2ff"/>
          <rect id="Rectangle_5571-7" data-name="Rectangle 5571" width="58" height="57" transform="translate(1487.382 1815)" fill="#edf0ff"/>
          <rect id="Rectangle_5572-7" data-name="Rectangle 5572" width="57" height="57" transform="translate(1430.382 1815)" fill="#d7e2ff"/>
          <rect id="Rectangle_5573-7" data-name="Rectangle 5573" width="57" height="58" transform="translate(1430.382 1757)" fill="#edf0ff"/>
        </g>
        <g id="Group_851-8" data-name="Group 851" transform="translate(-1085.382 -1642)">
          <rect id="Rectangle_5570-8" data-name="Rectangle 5570" width="58" height="58" transform="translate(1487.382 1757)" fill="#d7e2ff"/>
          <rect id="Rectangle_5571-8" data-name="Rectangle 5571" width="58" height="57" transform="translate(1487.382 1815)" fill="#edf0ff"/>
          <rect id="Rectangle_5572-8" data-name="Rectangle 5572" width="57" height="57" transform="translate(1430.382 1815)" fill="#d7e2ff"/>
          <rect id="Rectangle_5573-8" data-name="Rectangle 5573" width="57" height="58" transform="translate(1430.382 1757)" fill="#edf0ff"/>
        </g>
        <g id="Group_851-9" data-name="Group 851" transform="translate(-1430.382 -1527)">
          <rect id="Rectangle_5570-9" data-name="Rectangle 5570" width="58" height="58" transform="translate(1487.382 1757)" fill="#d7e2ff"/>
          <rect id="Rectangle_5571-9" data-name="Rectangle 5571" width="58" height="57" transform="translate(1487.382 1815)" fill="#edf0ff"/>
          <rect id="Rectangle_5572-9" data-name="Rectangle 5572" width="57" height="57" transform="translate(1430.382 1815)" fill="#d7e2ff"/>
          <rect id="Rectangle_5573-9" data-name="Rectangle 5573" width="57" height="58" transform="translate(1430.382 1757)" fill="#edf0ff"/>
        </g>
        <g id="Group_851-10" data-name="Group 851" transform="translate(-1315.382 -1527)">
          <rect id="Rectangle_5570-10" data-name="Rectangle 5570" width="58" height="58" transform="translate(1487.382 1757)" fill="#d7e2ff"/>
          <rect id="Rectangle_5571-10" data-name="Rectangle 5571" width="58" height="57" transform="translate(1487.382 1815)" fill="#edf0ff"/>
          <rect id="Rectangle_5572-10" data-name="Rectangle 5572" width="57" height="57" transform="translate(1430.382 1815)" fill="#d7e2ff"/>
          <rect id="Rectangle_5573-10" data-name="Rectangle 5573" width="57" height="58" transform="translate(1430.382 1757)" fill="#edf0ff"/>
        </g>
        <g id="Group_851-11" data-name="Group 851" transform="translate(-1200.382 -1527)">
          <rect id="Rectangle_5570-11" data-name="Rectangle 5570" width="58" height="58" transform="translate(1487.382 1757)" fill="#d7e2ff"/>
          <rect id="Rectangle_5571-11" data-name="Rectangle 5571" width="58" height="57" transform="translate(1487.382 1815)" fill="#edf0ff"/>
          <rect id="Rectangle_5572-11" data-name="Rectangle 5572" width="57" height="57" transform="translate(1430.382 1815)" fill="#d7e2ff"/>
          <rect id="Rectangle_5573-11" data-name="Rectangle 5573" width="57" height="58" transform="translate(1430.382 1757)" fill="#edf0ff"/>
        </g>
        <g id="Group_851-12" data-name="Group 851" transform="translate(-1085.382 -1527)">
          <rect id="Rectangle_5570-12" data-name="Rectangle 5570" width="58" height="58" transform="translate(1487.382 1757)" fill="#d7e2ff"/>
          <rect id="Rectangle_5571-12" data-name="Rectangle 5571" width="58" height="57" transform="translate(1487.382 1815)" fill="#edf0ff"/>
          <rect id="Rectangle_5572-12" data-name="Rectangle 5572" width="57" height="57" transform="translate(1430.382 1815)" fill="#d7e2ff"/>
          <rect id="Rectangle_5573-12" data-name="Rectangle 5573" width="57" height="58" transform="translate(1430.382 1757)" fill="#edf0ff"/>
        </g>
        <g id="Group_851-13" data-name="Group 851" transform="translate(-1430.382 -1412)">
          <rect id="Rectangle_5570-13" data-name="Rectangle 5570" width="58" height="58" transform="translate(1487.382 1757)" fill="#d7e2ff"/>
          <rect id="Rectangle_5571-13" data-name="Rectangle 5571" width="58" height="57" transform="translate(1487.382 1815)" fill="#edf0ff"/>
          <rect id="Rectangle_5572-13" data-name="Rectangle 5572" width="57" height="57" transform="translate(1430.382 1815)" fill="#d7e2ff"/>
          <rect id="Rectangle_5573-13" data-name="Rectangle 5573" width="57" height="58" transform="translate(1430.382 1757)" fill="#edf0ff"/>
        </g>
        <g id="Group_851-14" data-name="Group 851" transform="translate(-1315.382 -1412)">
          <rect id="Rectangle_5570-14" data-name="Rectangle 5570" width="58" height="58" transform="translate(1487.382 1757)" fill="#d7e2ff"/>
          <rect id="Rectangle_5571-14" data-name="Rectangle 5571" width="58" height="57" transform="translate(1487.382 1815)" fill="#edf0ff"/>
          <rect id="Rectangle_5572-14" data-name="Rectangle 5572" width="57" height="57" transform="translate(1430.382 1815)" fill="#d7e2ff"/>
          <rect id="Rectangle_5573-14" data-name="Rectangle 5573" width="57" height="58" transform="translate(1430.382 1757)" fill="#edf0ff"/>
        </g>
        <g id="Group_851-15" data-name="Group 851" transform="translate(-1200.382 -1412)">
          <rect id="Rectangle_5570-15" data-name="Rectangle 5570" width="58" height="58" transform="translate(1487.382 1757)" fill="#d7e2ff"/>
          <rect id="Rectangle_5571-15" data-name="Rectangle 5571" width="58" height="57" transform="translate(1487.382 1815)" fill="#edf0ff"/>
          <rect id="Rectangle_5572-15" data-name="Rectangle 5572" width="57" height="57" transform="translate(1430.382 1815)" fill="#d7e2ff"/>
          <rect id="Rectangle_5573-15" data-name="Rectangle 5573" width="57" height="58" transform="translate(1430.382 1757)" fill="#edf0ff"/>
        </g>
        <g id="Group_851-16" data-name="Group 851" transform="translate(-1085.382 -1412)">
          <rect id="Rectangle_5570-16" data-name="Rectangle 5570" width="58" height="58" transform="translate(1487.382 1757)" fill="#d7e2ff"/>
          <rect id="Rectangle_5571-16" data-name="Rectangle 5571" width="58" height="57" transform="translate(1487.382 1815)" fill="#edf0ff"/>
          <rect id="Rectangle_5572-16" data-name="Rectangle 5572" width="57" height="57" transform="translate(1430.382 1815)" fill="#d7e2ff"/>
          <rect id="Rectangle_5573-16" data-name="Rectangle 5573" width="57" height="58" transform="translate(1430.382 1757)" fill="#edf0ff"/>
        </g>
      </g>
      <rect id="Rectangle_5574" data-name="Rectangle 5574" width="321" height="437" fill="url(#linear-gradient)"/>
    </g>
  </g>
</svg>
