<svg xmlns="http://www.w3.org/2000/svg" xmlns:xlink="http://www.w3.org/1999/xlink" width="295" height="327" viewBox="0 0 295 327">
  <defs>
    <clipPath id="clip-path">
      <rect id="Rectangle_5580" data-name="Rectangle 5580" width="295" height="327" rx="16" transform="translate(346 3126)" fill="#fff"/>
    </clipPath>
  </defs>
  <g id="Overlay" transform="translate(-346 -3126)" clip-path="url(#clip-path)">
    <path id="Path_12199" data-name="Path 12199" d="M402,5842h85v66.707a17.7,17.7,0,0,1-2.125,8.738,16.538,16.538,0,0,1-5.95,6.154l-30.175,17.85L454.7,5961H487l-26.35,18.7,10.2,32.3-26.35-19.994L418.15,6012l10.2-32.3L402,5961h32.3l5.95-19.549-30.175-17.85a16.541,16.541,0,0,1-5.95-6.154,17.7,17.7,0,0,1-2.125-8.738Zm17,17v49.707l17,10.2V5859Zm51,0H453v59.908l17-10.2Z" transform="translate(179 -2743)" fill="#94a3b8" opacity="0.1"/>
  </g>
</svg>
