<svg xmlns="http://www.w3.org/2000/svg" width="154.647" height="146.915" viewBox="0 0 154.647 146.915">
  <path id="Path_12381" data-name="Path 12381" d="M397.485,2470.484v15.465H521.2v-15.465H397.485m0-85.056H414.5a11.05,11.05,0,0,1-1.253-3.635,28.375,28.375,0,0,1-.294-4.1,23.162,23.162,0,0,1,23.2-23.2,20.183,20.183,0,0,1,10.732,3.015,34.63,34.63,0,0,1,8.6,7.424l3.866,5.026,3.866-5.026a26.98,26.98,0,0,1,8.506-7.5,20.608,20.608,0,0,1,10.825-2.936,23.162,23.162,0,0,1,23.2,23.2,28.355,28.355,0,0,1-.286,4.1,11.078,11.078,0,0,1-1.26,3.635H521.2a15.539,15.539,0,0,1,15.465,15.464v85.058a15.539,15.539,0,0,1-15.465,15.465H397.485a15.553,15.553,0,0,1-15.465-15.465v-85.058a15.553,15.553,0,0,1,15.465-15.464h0m0,61.861H521.2v-46.4H481.768l16.238,22.037-12.371,8.893-26.291-35.568-26.29,35.568-12.372-8.893,15.852-22.037H397.485v46.4h0m38.662-61.861a7.563,7.563,0,0,0,5.513-2.244,7.9,7.9,0,0,0,0-10.977,7.887,7.887,0,0,0-11.019,0,7.876,7.876,0,0,0,0,10.977,7.532,7.532,0,0,0,5.505,2.244h0m46.394,0a7.565,7.565,0,0,0,5.513-2.244,7.9,7.9,0,0,0,0-10.977,7.887,7.887,0,0,0-11.019,0,7.877,7.877,0,0,0,0,10.977,7.532,7.532,0,0,0,5.506,2.244h0" transform="translate(-382.02 -2354.499)" fill="#3e6560" opacity="0.08"/>
</svg>
