<svg xmlns="http://www.w3.org/2000/svg" width="30.476" height="40" viewBox="0 0 30.476 40">
  <path id="Path_12302" data-name="Path 12302" d="M665.609,1851.809l1.667-5.43-4.381-3.525h5.429l1.714-5.333,1.714,5.333h5.428l-4.428,3.525,1.667,5.43-4.381-3.38-4.429,3.38h0m-7,17.711v-14.712a14.609,14.609,0,0,1-2.809-4.571,14.953,14.953,0,0,1-1-5.479,15.238,15.238,0,1,1,30.476,0,14.953,14.953,0,0,1-1,5.479,14.61,14.61,0,0,1-2.809,4.571v14.712l-11.429-3.809-11.429,3.809h0m11.429-13.333a11.378,11.378,0,1,0-8.1-3.332,11.008,11.008,0,0,0,8.1,3.332h0" transform="translate(-654.8 -1829.52)" fill="#d94826"/>
</svg>
