<svg xmlns="http://www.w3.org/2000/svg" width="32" height="30.4" viewBox="0 0 32 30.4">
  <path id="Path_12312" data-name="Path 12312" d="M385.22,2378.5v3.2h25.6v-3.2h-25.6m0-17.6h3.52a2.287,2.287,0,0,1-.259-.752,5.874,5.874,0,0,1-.061-.848,4.793,4.793,0,0,1,4.8-4.8,4.176,4.176,0,0,1,2.221.624,7.166,7.166,0,0,1,1.779,1.536l.8,1.04.8-1.04a5.582,5.582,0,0,1,1.76-1.552,4.265,4.265,0,0,1,2.24-.607,4.793,4.793,0,0,1,4.8,4.8,5.867,5.867,0,0,1-.059.848,2.292,2.292,0,0,1-.261.752h3.52a3.215,3.215,0,0,1,3.2,3.2v17.6a3.215,3.215,0,0,1-3.2,3.2h-25.6a3.218,3.218,0,0,1-3.2-3.2v-17.6a3.218,3.218,0,0,1,3.2-3.2h0m0,12.8h25.6v-9.6h-8.16l3.36,4.56-2.56,1.84-5.44-7.36-5.44,7.36-2.56-1.84,3.28-4.56h-8.08v9.6h0m8-12.8a1.565,1.565,0,0,0,1.141-.464,1.634,1.634,0,0,0,0-2.271,1.632,1.632,0,0,0-2.28,0,1.63,1.63,0,0,0,0,2.271,1.559,1.559,0,0,0,1.139.464h0m9.6,0a1.565,1.565,0,0,0,1.141-.464,1.634,1.634,0,0,0,0-2.271,1.632,1.632,0,0,0-2.28,0,1.63,1.63,0,0,0,0,2.271,1.559,1.559,0,0,0,1.139.464h0" transform="translate(-382.02 -2354.5)" fill="#3e6560"/>
</svg>
