<svg xmlns="http://www.w3.org/2000/svg" width="130" height="170.625" viewBox="0 0 130 170.625">
  <path id="Path_12379" data-name="Path 12379" d="M700.909,1924.6l7.109-23.163L689.33,1886.4h23.157l7.313-22.75,7.313,22.75h23.155l-18.889,15.038,7.109,23.163L719.8,1910.177,700.909,1924.6h0m-29.859,75.548v-62.756a62.313,62.313,0,0,1-11.984-19.5,63.783,63.783,0,0,1-4.266-23.37q0-27.2,18.891-46.093T719.8,1829.52q27.218,0,46.109,18.908,18.893,18.879,18.891,46.093a63.787,63.787,0,0,1-4.266,23.37,62.314,62.314,0,0,1-11.984,19.5v62.756L719.8,1983.9l-48.75,16.249h0m48.75-56.875a48.535,48.535,0,1,0-34.533-14.213,46.956,46.956,0,0,0,34.533,14.213h0" transform="translate(-654.8 -1829.52)" fill="#d94826" opacity="0.102"/>
</svg>
